<?xml version="1.0" encoding="UTF-8" standalone="no"?>
<svg
   xmlns:dc="http://purl.org/dc/elements/1.1/"
   xmlns:cc="http://creativecommons.org/ns#"
   xmlns:rdf="http://www.w3.org/1999/02/22-rdf-syntax-ns#"
   xmlns:svg="http://www.w3.org/2000/svg"
   xmlns="http://www.w3.org/2000/svg"
   xmlns:sodipodi="http://sodipodi.sourceforge.net/DTD/sodipodi-0.dtd"
   xmlns:inkscape="http://www.inkscape.org/namespaces/inkscape"
   inkscape:version="1.0 (4035a4fb49, 2020-05-01)"
   sodipodi:docname="easyeda.svg"
   id="svg6"
   version="1.1"
   viewBox="0 0 70.170044 52">
  <metadata
     id="metadata12">
    <rdf:RDF>
      <cc:Work
         rdf:about="">
        <dc:format>image/svg+xml</dc:format>
        <dc:type
           rdf:resource="http://purl.org/dc/dcmitype/StillImage" />
      </cc:Work>
    </rdf:RDF>
  </metadata>
  <defs
     id="defs10" />
  <sodipodi:namedview
     inkscape:current-layer="Group-33"
     inkscape:window-maximized="0"
     inkscape:window-y="20"
     inkscape:window-x="20"
     inkscape:cy="28"
     inkscape:cx="98.633922"
     inkscape:zoom="4.6535714"
     showgrid="false"
     id="namedview8"
     inkscape:window-height="1016"
     inkscape:window-width="2516"
     inkscape:pageshadow="2"
     inkscape:pageopacity="0"
     guidetolerance="10"
     gridtolerance="10"
     objecttolerance="10"
     borderopacity="1"
     bordercolor="#666666"
     pagecolor="#ffffff" />
  <g
     fill-rule="evenodd"
     fill="none"
     stroke-width="1"
     stroke="none"
     id="Page-1">
    <g
       fill="#1765f6"
       id="Group-33">
      <path
         id="Fill-17"
         d="m 22.644297,35.834223 c 2.823835,0 5.129371,2.311803 5.129371,5.143534 0,2.849832 -2.287664,5.143713 -5.129371,5.143713 -2.841707,0 -5.129371,-2.293881 -5.129371,-5.143713 0,-2.831731 2.287664,-5.143534 5.129371,-5.143534 M 65.520121,18.16261 C 63.786501,16.424142 61.677561,15.098068 59.354152,14.327407 54.778824,2.7135476 41.678375,-3.0035017 30.097077,1.5844398 28.291967,2.3013336 26.594092,3.2334749 25.039195,4.380505 23.287703,5.6707347 21.714934,7.2122357 20.392378,8.9507033 19.659611,8.8610916 18.908971,8.8071453 18.158331,8.8071453 8.1319299,8.8071453 0,16.961813 0,27.016428 0,34.866416 4.9863922,41.676908 12.117469,44.186036 13.493642,48.720211 17.675777,52 22.644297,52 c 6.058735,0 10.99151,-4.946388 10.99151,-11.022243 0,-0.483724 -0.03574,-0.949884 -0.08936,-1.397943 L 49.041793,31.76585 48.916686,31.514758 50.382221,30.780121 47.397534,24.847645 45.932,25.582641 45.806893,25.331549 30.329418,33.110026 c -1.983834,-1.953715 -4.700435,-3.154512 -7.685121,-3.154512 -4.432349,0 -8.239164,2.634585 -9.990657,6.416379 -4.0570284,-2.401594 -6.2195856,-7.294395 -4.9685194,-12.097584 1.5012793,-5.80684 7.4349074,-9.283954 13.2255564,-7.778298 1.05447,0.268835 2.073195,0.716894 3.002559,1.290409 2.645111,-8.0112887 11.277467,-12.3486758 19.248546,-9.6961685 5.629797,1.8818464 9.668954,6.8644375 10.348104,12.7788125 0.268086,-0.0181 0.554044,-0.03585 0.822129,-0.03585 4.682562,0 8.489378,3.81746 8.489378,8.513114 0,4.408718 -3.360007,8.082799 -7.756611,8.47727 h -6.237458 v 7.348162 h 6.559161 l 0.321703,-0.03602 c 8.685973,-0.734637 15.1379,-8.387478 14.405133,-17.11584 -0.321703,-3.709926 -1.948089,-7.204784 -4.5932,-9.857291" />
    </g>
  </g>
</svg>
