<?xml version="1.0" encoding="UTF-8" standalone="no"?>
<svg
   xmlns:dc="http://purl.org/dc/elements/1.1/"
   xmlns:cc="http://creativecommons.org/ns#"
   xmlns:rdf="http://www.w3.org/1999/02/22-rdf-syntax-ns#"
   xmlns:svg="http://www.w3.org/2000/svg"
   xmlns="http://www.w3.org/2000/svg"
   xmlns:sodipodi="http://sodipodi.sourceforge.net/DTD/sodipodi-0.dtd"
   xmlns:inkscape="http://www.inkscape.org/namespaces/inkscape"
   inkscape:version="1.0 (4035a4fb49, 2020-05-01)"
   sodipodi:docname="feature-bg-01.svg"
   id="svg44"
   version="1.1"
   height="764"
   width="876">
  <metadata
     id="metadata48">
    <rdf:RDF>
      <cc:Work
         rdf:about="">
        <dc:format>image/svg+xml</dc:format>
        <dc:type
           rdf:resource="http://purl.org/dc/dcmitype/StillImage" />
      </cc:Work>
    </rdf:RDF>
  </metadata>
  <sodipodi:namedview
     inkscape:current-layer="svg44"
     inkscape:window-maximized="0"
     inkscape:window-y="20"
     inkscape:window-x="1290"
     inkscape:cy="272.51188"
     inkscape:cx="223.96398"
     inkscape:zoom="0.40862257"
     showgrid="false"
     id="namedview46"
     inkscape:window-height="1016"
     inkscape:window-width="1246"
     inkscape:pageshadow="2"
     inkscape:pageopacity="0"
     guidetolerance="10"
     gridtolerance="10"
     objecttolerance="10"
     borderopacity="1"
     bordercolor="#666666"
     pagecolor="#ffffff" />
  <defs
     id="defs28">
    <linearGradient
       gradientUnits="userSpaceOnUse"
       gradientTransform="matrix(1.0087367,0,0,0.99133901,185,195)"
       id="b"
       y2="432.22379"
       x2="216.11189"
       y1="0"
       x1="216.11189">
      <stop
         id="stop2"
         offset="0%"
         stop-color="#4234F8" />
      <stop
         id="stop4"
         offset="100%"
         stop-opacity="0"
         stop-color="#4234F8" />
    </linearGradient>
    <radialGradient
       gradientUnits="userSpaceOnUse"
       id="c"
       gradientTransform="matrix(1.1088093,0,0,0.90186835,-98.642276,-87.76411)"
       r="223.80809"
       fy="165.51791"
       fx="127.07624"
       cy="165.51791"
       cx="127.07624">
      <stop
         id="stop7"
         offset="0%"
         stop-opacity="0"
         stop-color="#FF6C50" />
      <stop
         id="stop9"
         offset="51.712%"
         stop-opacity=".64"
         stop-color="#FF6C50" />
      <stop
         id="stop11"
         offset="100%"
         stop-opacity=".24"
         stop-color="#FF6C50" />
    </radialGradient>
    <linearGradient
       gradientUnits="userSpaceOnUse"
       gradientTransform="matrix(-1.0087367,0,0,0.99133901,611,195)"
       id="d"
       y2="432.22379"
       x2="216.11189"
       y1="0"
       x1="216.11189">
      <stop
         id="stop14"
         offset="0%"
         stop-opacity=".8"
         stop-color="#4234F8" />
      <stop
         id="stop16"
         offset="100%"
         stop-opacity="0"
         stop-color="#4234F8" />
    </linearGradient>
    <filter
       id="a">
      <feTurbulence
         id="feTurbulence19"
         result="turb"
         baseFrequency=".3"
         numOctaves="2"
         type="fractalNoise" />
      <feComposite
         id="feComposite21"
         in2="turb"
         result="result1"
         k4=".1"
         k3=".1"
         k2=".1"
         k1=".1"
         operator="arithmetic"
         in="turb" />
      <feComposite
         id="feComposite23"
         result="finalFilter"
         in2="SourceGraphic"
         in="result1"
         operator="in" />
      <feBlend
         id="feBlend25"
         in2="SourceGraphic"
         in="finalFilter"
         mode="multiply" />
    </filter>
  </defs>
  <g
     transform="translate(117.40299,115.14051)"
     id="g42"
     filter="url(#a)"
     fill-rule="evenodd"
     fill="none">
    <path
       style="fill:url(#b)"
       id="path30"
       fill="url(#b)"
       d="M 358.286,541.278 C 396.036,778.641 795.085,432.976 531.571,368.139 268.058,303.302 453.99,195 358.286,195 262.582,195 185,272.517 185,368.14 c 0,95.621 135.536,-64.225 173.286,173.138 z" />
    <path
       style="fill:url(#c)"
       id="path32"
       fill="url(#c)"
       d="m 152.35772,256.23589 c 94.993,0 172,-77.007 172,-172 0,-94.993 -77.007,-172 -172,-172 -94.992996,0 46.934,178.387 -171.999996,172 -218.934004,-6.387 77.007,172 171.999996,172 z" />
    <path
       style="fill:url(#d)"
       id="path34"
       fill="url(#d)"
       d="M 437.714,541.278 C 399.964,778.641 0.915,432.976 264.429,368.139 527.942,303.302 342.01,195 437.714,195 533.418,195 611,272.517 611,368.14 611,463.761 475.464,303.915 437.714,541.278 Z" />
    <path
       id="path36"
       d="m 640.608,179 -3.624,1.667 -0.984,3.53 1.158,3.36 3.45,1.443 3.249,-1.639 2.143,-3.165 -1.62,-3.674 z"
       fill="#C1C3DA" />
    <path
       id="path38"
       d="m 642.304,218 -1.812,0.833 -0.492,1.765 0.579,1.68 1.725,0.722 1.624,-0.82 1.072,-1.582 -0.81,-1.837 z"
       fill="#FF6C50"
       fill-opacity=".64" />
    <path
       id="path40"
       d="m 614.686,200 -2.899,1.334 -0.787,2.823 0.926,2.688 2.76,1.155 2.6,-1.31 1.714,-2.533 -1.295,-2.94 z"
       fill="#268DF7"
       fill-opacity=".64" />
  </g>
</svg>
