<svg viewBox="0 0 27 27" version="1.1" 
    xmlns="http://www.w3.org/2000/svg" 
    xmlns:xlink="http://www.w3.org/1999/xlink">
    <g id="logo-hd" stroke="none" stroke-width="1" fill-rule="evenodd">
        <path d="M0.154025047,5.72136898 C-0.0211189016,5.54622506 -0.0795002181,0.408669214 0.154025047,0.175143949 C0.387550313,-0.0583813164 5.52510616,-0.0583813164 5.70025008,0.175143949 C5.87539405,0.408669214 5.87539405,5.54622506 5.70025008,5.72136898 C5.52510616,5.89651295 0.27078768,5.89651295 0.154025047,5.72136898 L0.154025047,5.72136898 L0.154025047,5.72136898 Z" id="otl" class="logo-square"></path>
        <path d="M21.2469757,5.72136898 C21.0718318,5.54622506 21.0134504,0.408669214 21.2469757,0.175143949 C21.480501,-0.0583813164 26.6180568,-0.0583813164 26.7932007,0.175143949 C26.9683447,0.408669214 26.9683447,5.54622506 26.7932007,5.72136898 C26.6180568,5.89651295 21.3637383,5.89651295 21.2469757,5.72136898 L21.2469757,5.72136898 L21.2469757,5.72136898 Z" id="otr" class="logo-square"></path>
        <path d="M7.14022525,12.7075692 C6.96508132,12.5324253 6.9067,7.39486944 7.14022525,7.16134415 C7.37375053,6.92781891 12.5113063,6.92781891 12.6864503,7.16134415 C12.8615943,7.39486944 12.8615943,12.5324253 12.6864503,12.7075692 C12.5113063,12.8827132 7.25698789,12.8827132 7.14022525,12.7075692 L7.14022525,12.7075692 L7.14022525,12.7075692 Z" id="itl" class="logo-square"></path>
        <path d="M14.1264255,12.7075692 C13.9512815,12.5324253 13.8929002,7.39486944 14.1264255,7.16134415 C14.3599507,6.92781891 19.4975066,6.92781891 19.6726506,7.16134415 C19.8477945,7.39486944 19.8477945,12.5324253 19.6726506,12.7075692 C19.4975066,12.8827132 14.2431881,12.8827132 14.1264255,12.7075692 L14.1264255,12.7075692 L14.1264255,12.7075692 Z" id="itr" class="logo-square"></path>
        <path d="M7.14022525,19.6937695 C6.96508132,19.5186255 6.9067,14.3810696 7.14022525,14.1475444 C7.37375053,13.9140191 12.5113063,13.9140191 12.6864503,14.1475444 C12.8615943,14.3810696 12.8615943,19.5186255 12.6864503,19.6937695 C12.5113063,19.8689134 7.25698789,19.8689134 7.14022525,19.6937695 L7.14022525,19.6937695 L7.14022525,19.6937695 Z" id="ibl" class="logo-square"></path>
        <path d="M14.1264255,19.6937695 C13.9512815,19.5186255 13.8929002,14.3810696 14.1264255,14.1475444 C14.3599507,13.9140191 19.4975066,13.9140191 19.6726506,14.1475444 C19.8477945,14.3810696 19.8477945,19.5186255 19.6726506,19.6937695 C19.4975066,19.8689134 14.2431881,19.8689134 14.1264255,19.6937695 L14.1264255,19.6937695 L14.1264255,19.6937695 Z" id="ibr" class="logo-square"></path>
        <path d="M0.154025047,26.6799696 C-0.0211189016,26.5048257 -0.0795002181,21.3672699 0.154025047,21.1337446 C0.387550313,20.9002193 5.52510616,20.9002193 5.70025008,21.1337446 C5.87539405,21.3672699 5.87539405,26.5048257 5.70025008,26.6799696 C5.52510616,26.8551136 0.27078768,26.8551136 0.154025047,26.6799696 L0.154025047,26.6799696 L0.154025047,26.6799696 Z" id="obl" class="logo-square"></path>
        <path d="M21.2469757,26.6799696 C21.0718318,26.5048257 21.0134504,21.3672699 21.2469757,21.1337446 C21.480501,20.9002193 26.6180568,20.9002193 26.7932007,21.1337446 C26.9683447,21.3672699 26.9683447,26.5048257 26.7932007,26.6799696 C26.6180568,26.8551136 21.3637383,26.8551136 21.2469757,26.6799696 L21.2469757,26.6799696 L21.2469757,26.6799696 Z" id="obr" class="logo-square"></path>
    </g>
</svg>