<?xml version="1.0" standalone="no"?>
<!DOCTYPE svg PUBLIC "-//W3C//DTD SVG 20010904//EN"
 "http://www.w3.org/TR/2001/REC-SVG-20010904/DTD/svg10.dtd">
<svg version="1.0" xmlns="http://www.w3.org/2000/svg"
 width="700.000000pt" height="700.000000pt" viewBox="0 0 700.000000 700.000000"
 preserveAspectRatio="xMidYMid meet">
<metadata>
Created by potrace 1.11, written by Peter Selinger 2001-2013
</metadata>
<g transform="translate(0.000000,700.000000) scale(0.100000,-0.100000)"
fill="#000000" stroke="none">
<path d="M3568 6933 c-6 -8 -13 -22 -15 -32 -7 -37 -12 -228 -18 -611 -11
-713 -15 -817 -30 -852 -8 -21 -30 -24 -42 -6 -4 7 -6 114 -4 238 8 477 6 594
-6 617 -15 25 -46 33 -85 20 -51 -16 -56 -61 -62 -547 -3 -183 -8 -316 -15
-332 -11 -29 -34 -37 -48 -15 -4 6 -8 248 -8 537 l0 525 -35 17 c-91 44 -110
14 -116 -185 -2 -78 -6 -304 -8 -502 -3 -287 -7 -367 -18 -395 -17 -40 -43
-66 -52 -51 -8 12 -14 94 -17 210 -3 155 -31 201 -97 167 -44 -23 -53 -46 -58
-145 -9 -191 -13 -238 -26 -274 -7 -22 -17 -40 -22 -40 -17 -3 -44 56 -51 108
-6 50 -11 79 -20 125 -7 37 -34 53 -59 36 -54 -35 -81 -103 -90 -229 -7 -103
-42 -173 -76 -152 -19 12 -28 180 -34 622 -1 106 -5 195 -8 198 -3 4 -24 8
-46 10 -82 6 -90 -25 -97 -385 -5 -280 -11 -410 -22 -490 -3 -25 -6 -51 -6
-58 0 -8 -13 -27 -29 -44 -26 -28 -31 -30 -44 -16 -8 8 -16 30 -18 49 -16 144
-61 186 -125 114 -45 -52 -68 -143 -70 -282 -1 -48 -4 -55 -43 -90 -24 -21
-99 -94 -168 -163 -385 -385 -662 -929 -759 -1490 -28 -163 -30 -173 -37 -290
-17 -249 -7 -416 43 -703 11 -64 66 -249 105 -347 158 -407 427 -777 783
-1077 324 -272 710 -471 1112 -572 118 -30 128 -32 213 -46 25 -4 54 -9 65
-11 102 -19 434 -25 615 -11 201 16 224 17 219 13 -2 -3 -16 -7 -29 -9 -34 -7
-196 -35 -240 -42 -19 -4 -120 -8 -225 -10 -241 -4 -374 11 -645 70 -8 2 -15
4 -15 5 0 1 -7 3 -15 5 -111 26 -210 59 -355 118 -389 157 -742 409 -1005 717
-84 98 -113 128 -102 105 6 -11 53 -70 105 -130 406 -472 886 -755 1457 -859
173 -32 288 -41 535 -41 116 0 248 4 295 8 133 13 172 17 200 22 14 3 43 8 65
11 64 10 155 41 179 61 11 11 45 25 75 33 160 38 699 310 861 433 83 64 307
290 392 397 265 335 441 691 542 1100 30 119 40 169 61 310 25 171 26 568 1
710 -2 14 -7 46 -10 71 -11 75 -15 98 -47 228 -52 211 -122 398 -221 591 -47
90 -215 352 -255 395 -10 11 -36 43 -58 70 -22 28 -88 100 -147 160 l-107 110
-1 96 c0 75 3 99 15 109 14 11 14 15 0 29 -23 26 -131 75 -149 68 -15 -6 -15
-9 -1 -31 15 -23 15 -27 0 -50 -9 -13 -16 -33 -15 -43 5 -46 -7 -49 -56 -13
-39 29 -46 58 -51 219 -5 197 -19 252 -68 275 -68 32 -88 -7 -99 -194 -6 -98
-13 -127 -31 -134 -14 -5 -54 27 -57 47 -1 7 -2 150 -3 318 0 336 1 329 -62
355 -72 30 -79 7 -87 -279 -3 -88 -9 -164 -15 -171 -17 -20 -19 -59 -4 -82 11
-17 11 -23 1 -31 -26 -20 -48 -22 -69 -4 -38 31 -46 120 -43 491 2 184 4 403
4 485 2 209 -8 259 -54 271 -78 19 -92 -21 -101 -283 -2 -70 -7 -236 -10 -368
-6 -300 -15 -496 -21 -507 -8 -12 -40 -10 -52 5 -12 14 -19 66 -27 195 -18
279 -115 281 -130 3 -8 -131 -10 -141 -40 -141 -13 0 -27 6 -31 12 -5 7 -9
134 -10 283 -2 251 -9 324 -31 326 -5 0 -19 2 -32 5 -38 7 -68 -20 -76 -67 -8
-49 -13 -162 -15 -358 -1 -80 -4 -150 -7 -157 -5 -13 -40 -11 -54 3 -13 13
-18 88 -25 368 -7 322 -9 353 -15 359 -13 12 -80 12 -98 0 -31 -22 -38 -78
-46 -384 -8 -295 -13 -330 -45 -330 -11 0 -20 10 -23 28 -3 15 -6 335 -5 712
0 377 -2 696 -6 710 -13 53 -89 87 -118 53z m186 -1754 c-10 -17 -74 -7 -74
11 0 13 33 17 57 7 12 -6 20 -14 17 -18z m238 -6 c24 -22 23 -33 -5 -33 -30 0
-62 24 -53 38 10 17 36 15 58 -5z m463 -24 c16 -16 -30 -10 -51 7 -18 15 -18
15 11 9 17 -4 34 -11 40 -16z m-223 -22 c12 -20 -6 -28 -40 -16 -44 15 -44 44
0 35 18 -3 35 -12 40 -19z m472 7 c9 -8 16 -17 16 -20 0 -11 -30 -2 -51 16
-24 19 -24 19 -2 20 12 0 29 -7 37 -16z m-1189 -245 c2 -125 7 -433 10 -685 8
-678 18 -1063 29 -1119 12 -56 25 -75 55 -75 51 0 61 32 67 209 4 129 4 839 0
1489 -1 233 1 425 4 427 3 2 21 0 40 -4 l35 -7 1 -59 c1 -33 5 -249 9 -480 10
-650 10 -647 53 -688 43 -40 64 -39 79 7 20 58 25 195 27 726 l2 485 33 -2
c19 -1 36 -4 38 -7 3 -3 7 -112 9 -243 13 -1006 17 -1085 50 -1118 9 -8 28
-15 44 -15 23 0 34 7 47 33 17 30 18 78 19 662 l1 630 30 3 c23 2 32 -2 35
-16 3 -10 6 -104 7 -208 3 -254 8 -350 22 -406 12 -53 17 -58 59 -64 60 -10
68 33 71 386 1 125 5 233 9 240 12 20 47 2 56 -28 9 -36 12 -99 14 -327 3
-295 24 -395 84 -395 55 1 66 38 71 255 10 345 16 395 47 395 6 0 30 -12 54
-27 l44 -28 0 -405 c1 -223 5 -425 10 -450 6 -32 17 -53 42 -73 38 -32 58 -31
75 3 20 43 25 116 28 475 2 193 4 353 4 358 1 4 13 0 27 -10 42 -27 49 -57 59
-231 11 -198 18 -219 80 -249 27 -13 37 -14 49 -4 20 17 33 113 35 267 l1 62
173 -173 c94 -95 200 -202 235 -238 34 -36 62 -63 62 -60 0 2 -19 28 -42 57
-24 29 -52 65 -63 80 -11 15 -39 53 -63 84 -49 64 -40 83 15 31 100 -97 228
-287 318 -474 165 -342 248 -609 280 -900 4 -33 9 -71 11 -85 2 -14 5 -97 5
-185 1 -145 -3 -216 -17 -312 -12 -90 -16 -115 -35 -203 -133 -612 -503 -1147
-1034 -1495 -293 -192 -652 -323 -1035 -380 -180 -26 -525 -26 -710 1 -322 46
-643 161 -920 329 -52 32 -97 60 -100 64 -3 3 -27 21 -55 40 -296 204 -601
563 -779 918 -65 130 -161 381 -180 473 -3 14 -10 45 -17 70 -6 25 -13 56 -15
70 -2 14 -9 48 -15 76 -31 156 -42 431 -26 619 6 68 24 182 41 273 44 218 181
544 316 747 142 214 437 532 466 502 5 -4 9 -23 20 -82 12 -67 58 -70 98 -7
30 48 43 91 56 180 5 40 17 86 25 102 18 34 73 76 85 64 12 -13 18 -78 26
-253 8 -209 12 -226 50 -234 32 -6 69 24 83 66 16 51 21 111 26 299 2 98 7
194 11 213 6 32 35 65 56 65 16 0 27 -49 33 -143 11 -188 67 -279 123 -199 25
35 30 59 37 167 14 216 22 256 58 263 35 7 43 -53 51 -404 5 -185 16 -224 64
-224 74 1 81 32 97 455 8 201 13 235 35 235 18 0 26 -20 36 -88 2 -15 6 -196
9 -402 6 -451 8 -473 48 -486 92 -31 98 -1 99 501 2 376 9 490 35 516 33 33
43 -18 48 -244 5 -198 12 -277 25 -312 11 -29 51 -51 75 -42 34 14 36 28 49
466 4 104 9 146 18 152 31 20 37 -14 43 -242z m930 179 c24 -19 25 -22 10 -30
-28 -16 -65 -1 -65 27 0 31 18 32 55 3z m273 -15 c34 -21 21 -27 -21 -10 -42
18 -62 43 -26 32 13 -4 35 -14 47 -22z m261 -64 c18 -11 31 -22 28 -25 -6 -7
-63 22 -72 36 -10 16 7 12 44 -11z m-272 -19 c31 -18 53 -63 39 -78 -12 -11
-80 31 -93 57 -21 44 2 53 54 21z m264 -149 c30 -30 39 -71 16 -71 -20 0 -54
41 -62 73 -9 36 8 35 46 -2z m289 -229 c30 -42 15 -64 -23 -36 -31 23 -71 90
-62 104 8 13 55 -24 85 -68z m-2951 -3981 c78 -49 213 -120 324 -170 70 -32
195 -77 350 -128 77 -24 137 -46 135 -48 -14 -15 -253 58 -413 125 -239 100
-560 278 -573 318 -4 13 36 -9 177 -97z m121 -152 c194 -95 428 -190 525 -213
55 -13 137 -40 140 -47 17 -26 -260 58 -410 125 -16 8 -64 28 -105 46 -127 54
-305 150 -279 150 2 0 61 -27 129 -61z"/>
<path d="M1950 2280 l0 -420 60 0 60 0 1 128 c1 179 6 229 26 271 22 44 75 81
117 81 93 -1 115 -59 118 -306 l3 -172 60 -1 61 -1 -2 92 c-7 344 -9 358 -47
415 -40 60 -141 85 -212 54 -23 -10 -57 -32 -77 -49 -19 -17 -38 -29 -42 -25
-3 3 -6 84 -6 180 l0 173 -60 0 -60 0 0 -420z"/>
<path d="M5274 2283 l1 -418 29 -3 c53 -6 76 5 76 38 0 37 13 45 36 19 55 -61
155 -80 239 -45 95 40 144 124 149 254 4 137 -29 229 -99 272 -43 26 -68 32
-128 31 -63 -1 -110 -22 -152 -68 -22 -24 -35 -33 -36 -23 -1 8 -2 31 -4 50
-2 19 -3 97 -4 173 l-1 137 -53 0 -53 0 0 -417z m321 47 c36 -14 53 -32 75
-83 38 -86 7 -229 -61 -278 -61 -43 -150 -23 -197 45 -41 59 -31 227 16 280
36 41 112 57 167 36z"/>
<path d="M3254 2652 c-21 -3 -21 -5 -21 -396 l-1 -393 59 -2 c41 -1 59 3 60
11 1 7 2 85 4 173 1 88 3 171 4 184 l1 24 25 -29 c14 -16 85 -104 156 -196
l131 -168 68 0 c60 0 68 2 64 18 -3 9 -72 100 -154 202 l-148 185 19 35 c11
19 72 98 135 175 145 177 144 175 102 176 -18 1 -48 2 -66 3 -29 1 -38 -6 -75
-54 -22 -30 -47 -61 -53 -70 -7 -8 -50 -62 -95 -120 -82 -105 -99 -123 -108
-114 -2 2 -5 81 -6 174 -1 94 -5 173 -8 177 -8 7 -59 10 -93 5z"/>
<path d="M1628 2572 c-40 -13 -48 -20 -49 -41 -4 -113 0 -105 -44 -107 -22 -1
-43 -2 -47 -3 -5 0 -8 -21 -8 -46 l0 -45 48 0 48 0 2 -168 c4 -271 22 -305
164 -306 77 -1 90 8 86 59 -3 26 -7 30 -38 33 -50 4 -78 21 -84 51 -6 26 -9
149 -7 269 l1 62 65 0 65 0 0 48 0 48 -67 0 -66 -1 -2 65 c-3 94 -4 100 -12
99 -5 0 -29 -8 -55 -17z"/>
<path d="M2769 2419 c-127 -45 -181 -133 -181 -294 0 -201 139 -304 352 -260
85 18 100 29 100 75 0 22 -2 40 -4 40 -2 0 -21 -7 -42 -16 -53 -22 -159 -22
-206 0 -38 19 -75 65 -78 101 -6 52 -14 50 191 49 l192 -1 -6 70 c-16 189
-156 293 -318 236z m163 -106 c20 -20 31 -44 35 -71 6 -47 15 -43 -102 -43
-156 0 -155 -1 -155 22 0 37 38 90 85 118 34 20 104 7 137 -26z"/>
<path d="M4177 2425 c-41 -14 -55 -24 -104 -69 l-33 -30 -1 35 c-2 66 0 64
-57 65 -29 0 -56 -4 -59 -9 -5 -8 -8 -457 -4 -540 1 -16 9 -18 59 -15 l57 3 2
110 c4 297 21 347 126 361 59 8 95 -9 113 -51 19 -47 22 -80 23 -267 l1 -157
63 2 62 2 -3 105 c-5 187 -13 304 -23 342 -10 39 -49 88 -85 106 -33 17 -97
21 -137 7z"/>
<path d="M4777 2428 c-139 -30 -220 -132 -220 -278 -1 -132 46 -220 142 -268
48 -23 68 -27 136 -26 93 1 156 25 204 74 97 102 108 297 24 408 -58 78 -175
114 -286 90z m163 -123 c39 -37 58 -103 54 -179 -6 -117 -60 -180 -154 -177
-84 1 -126 33 -152 111 -32 98 -1 217 69 258 56 33 141 27 183 -13z"/>
<path d="M5280 5132 c0 -28 159 -116 177 -98 15 14 -34 61 -93 87 -74 34 -84
35 -84 11z"/>
</g>
</svg>
