<?xml version="1.0" encoding="UTF-8" standalone="no"?>
<!-- Created with Inkscape (http://www.inkscape.org/) -->

<svg
   xmlns:dc="http://purl.org/dc/elements/1.1/"
   xmlns:cc="http://creativecommons.org/ns#"
   xmlns:rdf="http://www.w3.org/1999/02/22-rdf-syntax-ns#"
   xmlns:svg="http://www.w3.org/2000/svg"
   xmlns="http://www.w3.org/2000/svg"
   xmlns:sodipodi="http://sodipodi.sourceforge.net/DTD/sodipodi-0.dtd"
   xmlns:inkscape="http://www.inkscape.org/namespaces/inkscape"
   width="512"
   height="512"
   viewBox="0 0 135.46666 135.46667"
   version="1.1"
   id="svg8"
   inkscape:version="0.92.1 r15371"
   sodipodi:docname="theKnobLogoFinal.svg">
  <defs
     id="defs2" />
  <sodipodi:namedview
     id="base"
     pagecolor="#ffffff"
     bordercolor="#666666"
     borderopacity="1.0"
     inkscape:pageopacity="0.0"
     inkscape:pageshadow="2"
     inkscape:zoom="0.7"
     inkscape:cx="586.91006"
     inkscape:cy="423.70669"
     inkscape:document-units="mm"
     inkscape:current-layer="layer1"
     showgrid="false"
     showguides="false"
     inkscape:window-width="1920"
     inkscape:window-height="1027"
     inkscape:window-x="1672"
     inkscape:window-y="22"
     inkscape:window-maximized="1"
     units="px" />
  <metadata
     id="metadata5">
    <rdf:RDF>
      <cc:Work
         rdf:about="">
        <dc:format>image/svg+xml</dc:format>
        <dc:type
           rdf:resource="http://purl.org/dc/dcmitype/StillImage" />
        <dc:title></dc:title>
      </cc:Work>
    </rdf:RDF>
  </metadata>
  <g
     inkscape:label="Layer 1"
     inkscape:groupmode="layer"
     id="layer1"
     transform="translate(0,-161.53332)">
    <g
       id="layer1-5"
       inkscape:label="Layer 1"
       transform="matrix(0.5931228,0,0,0.5931228,6.8998079,139.39085)">
      <path
         d="m 104.43117,39.767422 c -0.40771,0.49137 -0.67273,8.680165 -0.78896,24.37113 -0.1318,17.946243 -0.34568,23.802256 -0.89128,24.34632 -1.71898,1.718981 -1.94064,-0.337903 -1.43999,-13.353513 0.55647,-14.438527 0.4185,-15.436756 -2.146781,-15.436756 -2.610259,0 -2.870657,1.404336 -2.870657,15.491014 0,12.967551 -0.145699,14.361027 -1.497331,14.361027 -1.024574,0 -0.968768,1.247772 -0.810671,-18.211301 L 94.121949,54.560921 92.697462,53.911449 C 88.92314,52.19092 88.83014,52.620274 88.83014,71.642236 c 0,14.525353 -0.133281,17.265786 -0.89437,18.350816 -1.590331,2.270798 -1.976287,1.405885 -1.976287,-4.423789 0,-7.041785 -0.956369,-8.666218 -3.890575,-6.610877 -1.154767,0.809122 -1.275675,1.376428 -1.275675,5.942824 0,10.538656 -2.720303,12.104191 -3.583667,2.061535 -0.449515,-5.222062 -5.028299,-1.359385 -5.028299,4.242434 0,3.055114 -0.251077,4.264134 -1.106724,5.310396 -2.008841,2.458346 -2.306443,0.888176 -2.469196,-13.014046 l -0.155,-13.186114 -1.339229,-0.190671 c -3.191511,-0.451048 -3.53872,0.785864 -3.56972,12.766061 -0.03731,13.404668 -0.53786,18.628255 -1.860035,19.367615 -1.712783,0.95947 -1.838341,0.81841 -2.129744,-2.377742 -0.630865,-6.945688 -5.815712,-3.662715 -6.11797,3.873512 l -0.178252,4.45014 -3.709226,3.33568 c -25.062441,22.54673 -35.855306,61.86945 -25.3988,92.543 12.211137,35.82275 50.470543,61.65556 87.646459,59.18015 2.99932,-0.19997 7.13324,-0.47742 9.18548,-0.61845 l 3.73093,-0.25573 -3.73093,0.81222 c -28.457024,6.19391 -62.903349,-6.51788 -81.406058,-30.04116 -1.325278,-1.68643 -2.410297,-2.89389 -2.410297,-2.68309 0,0.98891 5.558405,7.42308 10.430151,12.07163 15.305004,14.60438 32.936601,21.80428 55.092734,22.50179 12.22197,0.38288 27.47738,-1.68798 27.47892,-3.73246 0,-0.22318 0.60608,-0.4418 1.34543,-0.48361 2.19484,-0.12556 13.58757,-5.1771 19.32734,-8.56857 2.93266,-1.73293 6.13347,-3.53252 7.11153,-3.99907 2.5405,-1.21058 9.9543,-8.13148 14.28665,-13.33802 29.68926,-35.68479 28.70345,-87.28531 -2.28166,-119.22988 l -4.48423,-4.62374 V 107.775 c 0,-1.81508 0.19374,-3.30156 0.43086,-3.30156 1.33768,-10e-4 0.0667,-1.37332 -2.19949,-2.37774 -2.81176,-1.24313 -3.74952,-1.09432 -2.51105,0.39831 0.63396,0.76417 0.63396,0.99823 -0.001,1.39038 -0.43715,0.26973 -0.62777,0.98736 -0.4464,1.67868 0.39217,1.50043 -0.56886,1.53762 -2.3049,0.0899 -1.19352,-0.99513 -1.29118,-1.54847 -1.29118,-7.316143 0,-6.610872 -0.55025,-8.350009 -2.83189,-8.946776 -1.81819,-0.475834 -2.34986,0.821525 -2.56685,6.260586 -0.20922,5.243743 -0.52857,5.742863 -2.5777,4.042483 -0.65878,-0.547165 -0.73782,-2.472312 -0.43715,-10.716919 0.37823,-10.377452 0.30535,-10.898263 -1.64768,-11.92439 -2.63041,-1.382617 -3.14192,-0.13788 -3.14192,7.643208 0,4.383483 -0.22323,7.148737 -0.57506,7.148737 -0.71921,0 -0.75332,1.880191 -0.048,2.611792 0.82928,0.858725 -0.68976,1.87089 -2.05223,1.367143 -1.73133,-0.641719 -2.07697,-5.773873 -1.58717,-23.520174 0.44174,-15.959116 0.17978,-17.775748 -2.56996,-17.775748 -2.16538,0 -2.31574,1.106719 -2.7048,19.848132 -0.42008,20.286808 -0.2728,18.859235 -1.88174,18.349258 -1.06331,-0.337903 -1.18731,-0.912962 -1.33458,-6.162906 -0.26814,-9.466044 -4.03782,-10.15271 -4.34937,-0.792079 -0.15965,4.788057 -0.22011,4.992659 -1.43532,4.819037 -1.25554,-0.178253 -1.26793,-0.282097 -1.19354,-9.940335 0.0775,-10.205389 -0.0148,-10.594448 -2.49398,-10.611496 -2.07241,-0.01482 -2.45991,1.703476 -2.45991,10.901355 0,8.681718 -0.001,8.689466 -1.29273,8.505009 -1.28187,-0.181318 -1.29273,-0.272795 -1.57792,-12.239025 l -0.2868,-12.056143 -1.64922,-0.187554 c -2.76371,-0.316234 -2.92336,0.297582 -3.23181,12.414202 -0.27438,10.833166 -0.33479,11.312107 -1.43534,11.312107 -1.13307,0 -1.14393,-0.308466 -0.92226,-23.845663 0.20768,-21.936027 0.14723,-23.924718 -0.75797,-24.829937 -1.16716,-1.165616 -2.81639,-1.275675 -3.67202,-0.243308 m 6.50081,56.669109 c 0.2015,0.325485 -0.28057,0.57351 -1.11446,0.57351 -0.80758,0 -1.46788,-0.258844 -1.46788,-0.57351 0,-0.316234 0.50067,-0.575068 1.11291,-0.575068 0.61381,0 1.27412,0.258844 1.46943,0.575068 m 8.06171,0.612258 c 0.20769,0.33637 0.24183,0.747112 0.0758,0.912976 -0.44952,0.451049 -2.68311,-0.373573 -2.68311,-0.990481 0,-0.739365 2.14059,-0.675801 2.60715,0.07747 m 14.61524,0.534763 c 0.76571,0.494487 0.76571,0.556456 0,0.556456 -0.4743,0 -1.24932,-0.249543 -1.72209,-0.556456 -0.76571,-0.494487 -0.76571,-0.556462 0,-0.556462 0.47277,0 1.24777,0.251128 1.72209,0.556462 m -7.79666,0.348788 c 0.49908,0.192204 0.90677,0.596757 0.90677,0.900573 0,0.798258 -2.4475,0.322368 -2.72961,-0.531665 -0.25731,-0.781209 0.39994,-0.914515 1.82284,-0.368872 m 16.36987,0.468117 c 0.55646,0.669602 0.465,0.75951 -0.51306,0.503737 -1.43532,-0.375107 -2.14369,-1.320617 -0.98892,-1.320617 0.45417,0 1.12997,0.367339 1.50198,0.81687 m 18.40816,0.06506 c 0,0.691316 4.29049,3.137271 5.50107,3.137271 1.33613,0 -0.32241,-2.004203 -2.39017,-2.89082 -3.16049,-1.354724 -3.1109,-1.350068 -3.1109,-0.246426 m -57.72312,0.410727 c 0.12235,0.393709 0.38753,15.566959 0.58746,33.716259 0.38594,34.86327 0.39989,35.02913 2.95436,35.02913 2.11113,0 2.20259,-1.63993 2.00729,-36.07076 l -0.19067,-33.488386 1.35318,0.190671 1.35317,0.192204 0.28675,19.359871 c 0.28368,19.12892 0.30381,19.37536 1.57948,20.65105 3.23491,3.23181 3.56197,1.37952 3.60382,-20.39064 l 0.0358,-19.406379 1.26638,0.179786 1.26483,0.179786 0.28833,21.719017 c 0.30224,22.89705 0.35804,23.34655 2.93885,23.34655 2.18864,0 2.308,-1.23382 2.17624,-22.61183 l -0.12705,-20.73165 1.23694,-0.18291 c 1.22761,-0.1829 1.23693,-0.10543 1.23693,10.1899 0,10.53866 0.46812,12.70716 2.72806,12.66066 1.94062,-0.0388 2.15297,-1.08967 2.17002,-10.73862 0.022,-11.23307 -0.0527,-10.70605 1.41673,-9.91864 1.08192,0.57816 1.14858,1.20128 1.14858,10.65801 0,10.89672 0.61847,14.02777 2.77144,14.02777 2.08635,0 2.3514,-1.22297 2.42425,-11.12302 0.0758,-10.47046 0.30688,-11.15867 3.13261,-9.30794 l 1.43224,0.93778 v 14.33934 c 0,13.5736 0.0604,14.39977 1.14703,15.48634 3.38835,3.38836 4.01921,1.17802 4.01921,-14.09752 v -13.02492 l 1.29119,0.85563 c 1.17957,0.77967 1.31752,1.41673 1.57947,7.29909 0.26196,5.90252 0.39989,6.53648 1.64148,7.53935 2.84587,2.29869 3.42402,1.38418 3.66737,-5.79402 l 0.14417,-4.30599 2.42114,2.58392 c 1.33304,1.42136 2.67381,2.7916 2.98071,3.04735 1.74224,1.44618 8.07877,7.86795 9.45519,9.58229 l 1.61358,2.00883 -1.58722,-2.29559 c -0.87266,-1.26327 -2.73736,-3.66582 -4.14168,-5.3383 -1.40434,-1.67247 -2.39481,-3.19928 -2.20105,-3.39302 0.55337,-0.55336 2.50486,1.46787 6.18308,6.40473 3.05045,4.09207 4.17267,6.11642 8.00589,14.43078 24.36316,52.84825 -11.81765,110.67677 -70.44445,112.59107 -71.485838,2.33434 -111.0550159,-84.28134 -61.009187,-133.53975 4.794246,-4.7183 4.974052,-4.78494 5.211202,-1.92049 0.44328,5.36619 4.485789,2.19019 5.1461,-4.04403 0.37664,-3.54957 0.663418,-4.31529 2.018142,-5.40186 2.151443,-1.72518 2.160744,-1.69572 2.486249,7.19679 0.272796,7.46961 0.345671,7.85556 1.511283,8.02142 2.7637,0.39529 3.653419,-2.1437 3.662715,-10.44101 0.0092,-8.28646 0.24801,-9.8675 1.565535,-10.37436 1.390374,-0.5332 1.571729,0.0189 1.784083,5.45146 0.344087,8.78557 5.2546,8.54532 5.2546,-0.25731 0,-5.39876 0.612268,-8.37792 1.725181,-8.37792 1.340782,0 1.705035,2.50176 1.712792,11.79727 0.0061,7.67266 0.322419,8.87084 2.346739,8.87084 2.173147,0 2.529652,-1.54693 2.825711,-12.28555 0.240293,-8.69566 0.426262,-10.39139 1.142374,-10.39139 1.350074,0 1.587234,2.48158 1.660084,17.34639 0.06664,13.54415 0.09924,13.91771 1.28652,14.55323 3.194613,1.70968 3.670473,-0.33944 3.467414,-14.90819 -0.193737,-13.90842 0.134865,-18.426771 1.345423,-18.426771 1.157885,0 1.303589,0.985827 1.399686,9.450541 0.08989,7.93926 0.418494,9.65358 1.970088,10.2488 2.224296,0.85252 2.625746,-0.66962 2.693956,-10.22246 0.0358,-5.04999 0.18597,-9.376123 0.33325,-9.616381 0.42008,-0.677359 1.36249,-0.511499 1.60894,0.283682 m 31.1897,2.063089 c 0.12235,0.36422 -0.31623,0.66342 -0.97496,0.66342 -0.65721,0 -1.19509,-0.1085 -1.19509,-0.2403 0,-0.13179 -0.15807,-0.65102 -0.35027,-1.15323 -0.2868,-0.747118 -0.11008,-0.823064 0.97496,-0.423146 0.72852,0.269726 1.42449,0.788966 1.54538,1.153226 m 8.16246,-0.19844 c 0.92072,0.527 1.11448,0.82772 0.54097,0.84166 -0.49291,0.0107 -1.39659,-0.35962 -2.00885,-0.82307 -1.42758,-1.078815 -0.40919,-1.091218 1.46788,-0.0189 m 8.93284,2.27856 c 0.61225,0.46346 0.8401,0.85095 0.50685,0.86181 -0.33479,0.008 -1.10983,-0.36121 -1.72208,-0.82462 -0.61383,-0.465 -0.84168,-0.85252 -0.50686,-0.86181 0.33479,-0.008 1.10984,0.36116 1.72211,0.82462 m -9.24595,0.39677 c 1.18888,0.54252 2.1561,2.77921 1.20129,2.77921 -1.13774,0 -3.18378,-1.53607 -3.18378,-2.38859 0,-1.24314 0.0759,-1.25863 1.98249,-0.3906 m 8.38722,4.66249 c 1.27723,0.99823 1.83214,2.70945 0.87732,2.70945 -0.85873,0 -1.69729,-0.91452 -2.24135,-2.43974 -0.41543,-1.16564 0.0884,-1.26328 1.36403,-0.26973 m 10.29685,8.84447 c 0,1.07417 -0.59212,0.93622 -2.1158,-0.49444 -0.73006,-0.68667 -1.32836,-1.7686 -1.32836,-2.40409 0,-1.04784 0.15965,-1.00133 1.72208,0.49443 0.94706,0.90831 1.72208,1.99025 1.72208,2.40409 m -93.575592,130.9173 c 4.893439,2.74511 13.620109,6.29933 19.271525,7.84936 2.819507,0.77346 4.574139,1.42448 3.899871,1.44773 -5.922658,0.20309 -30.18374,-10.90291 -32.694785,-14.96555 -0.218523,-0.35492 1.123767,0.37664 2.983808,1.62599 1.86004,1.24932 4.803546,3.06905 6.539581,4.04247 m 10.045738,7.22626 c 2.84277,1.12221 6.967393,2.49088 9.168438,3.0396 2.201035,0.5487 3.681322,1.10517 3.29072,1.23537 -2.331254,0.77656 -22.272396,-7.19369 -26.237374,-10.48595 -0.630859,-0.52547 1.047821,0.19844 3.732478,1.60739 2.683104,1.40897 7.204538,3.4798 10.045738,4.60359"
         id="path0"
         inkscape:connector-curvature="0"
         style="fill:#282828;fill-rule:evenodd;stroke:none;stroke-width:1.55003035" />
      <path
         style="fill:#282828;fill-opacity:1;stroke-width:0.39144176"
         d="m 51.987316,191.29186 v -13.70044 h 1.957205 1.95721 v 6.06733 c 0,3.33705 0.09935,6.06734 0.221027,6.06734 0.121526,0 0.685812,-0.55238 1.25391,-1.22754 2.801543,-3.32946 8.145816,-2.96979 10.048666,0.67626 0.699059,1.33948 0.816487,2.41904 0.94342,8.67372 l 0.144932,7.14381 h -2.000138 -2.000132 l -0.0016,-5.57806 c -0.0031,-8.0784 -0.773953,-10.07963 -3.88221,-10.07963 -1.959377,0 -3.641236,1.3588 -4.26698,3.44734 -0.255215,0.85179 -0.460349,3.91491 -0.460349,6.87344 v 5.33691 h -1.957215 -1.957205 z"
         id="path36"
         inkscape:connector-curvature="0" />
      <path
         style="fill:#282828;fill-opacity:1;stroke-width:0.39144176"
         d="m 42.675663,204.94198 c -2.407385,-0.69429 -2.819926,-2.01758 -2.821582,-9.05067 l -0.0015,-6.16522 H 38.2868 36.72104 v -1.56575 -1.56577 h 1.56576 1.565765 v -2.14108 -2.14109 l 1.85935,-0.54348 1.859356,-0.54351 0.115036,2.68459 0.115036,2.68457 h 2.13579 2.135769 v 1.56577 1.56575 h -2.152935 -2.152925 v 5.61523 c 0,5.07544 0.07364,5.68185 0.765422,6.30796 0.526561,0.4765 1.198421,0.64214 2.152925,0.5307 1.366693,-0.1595 1.387513,-0.14033 1.387513,1.27626 0,1.29766 -0.119482,1.46215 -1.223252,1.68288 -1.563951,0.31281 -2.570664,0.26523 -4.17397,-0.19711 z"
         id="path38"
         inkscape:connector-curvature="0" />
      <path
         style="fill:#282828;fill-opacity:1;stroke-width:0.39144176"
         d="m 78.512986,205.01895 c -3.819003,-1.23879 -5.779264,-4.25262 -5.779264,-8.88543 0,-4.50251 1.499983,-7.28517 4.818412,-8.93882 5.870047,-2.92518 11.61086,0.98459 11.619962,7.91371 l 0.0021,1.66365 H 82.911125 76.64806 v 1.01606 c 0,1.38047 1.04269,3.04324 2.417692,3.85547 1.44797,0.85533 5.319099,0.87876 6.937236,0.0419 1.582829,-0.81854 1.605448,-0.80751 1.605448,0.78233 0,1.22836 -0.165476,1.45914 -1.422514,1.98439 -1.716467,0.71717 -6.190318,1.04755 -7.673018,0.56662 z m 6.746876,-11.98503 c 0,-2.56669 -2.265089,-4.4138 -4.823891,-3.93377 -1.775426,0.33304 -3.787834,2.62764 -3.787834,4.31891 0,0.51909 0.659048,0.61289 4.30586,0.61289 h 4.305865 z"
         id="path40"
         inkscape:connector-curvature="0" />
      <path
         style="fill:#282828;fill-opacity:1;stroke-width:0.39144176"
         d="m 93.871583,192.07475 v -12.91758 h 1.957205 1.95721 v 6.06734 c 0,3.33706 0.140282,6.06735 0.311687,6.06735 0.171455,0 2.400705,-2.73029 4.953905,-6.06735 l 4.64224,-6.06734 h 2.34842 c 2.19647,0 2.31092,0.0445 1.76868,0.68501 -4.29295,5.07263 -9.36037,11.54126 -9.26009,11.82065 0.0705,0.19635 2.24196,2.95288 4.82546,6.12556 6.55873,8.05444 6.17954,7.20395 3.21197,7.20395 h -2.50835 l -4.89976,-6.44505 c -2.69485,-3.54477 -5.010991,-6.3338 -5.146954,-6.19782 -0.135938,0.13588 -0.247192,3.03622 -0.247192,6.44504 v 6.19783 h -1.957205 -1.957206 z"
         id="path42"
         inkscape:connector-curvature="0" />
      <path
         style="fill:#282828;fill-opacity:1;stroke-width:0.39144176"
         d="m 116.18376,195.79344 v -9.19887 h 1.9572 1.95721 v 1.61561 1.61563 l 1.72634,-1.59129 c 2.56386,-2.36326 5.85609,-2.67444 8.26316,-0.78105 1.92899,1.51734 2.27513,3.00922 2.45714,10.59078 l 0.16676,6.94809 h -2.00086 -2.00086 l -10e-4,-5.77378 c -0.003,-6.33036 -0.36964,-8.37726 -1.66588,-9.28518 -1.07998,-0.75647 -3.13139,-0.76841 -4.56592,-0.0266 -1.8749,0.96953 -2.37771,2.96113 -2.37771,9.41756 v 5.66799 h -1.95723 -1.95719 z"
         id="path44"
         inkscape:connector-curvature="0" />
      <path
         style="fill:#282828;fill-opacity:1;stroke-width:0.39144176"
         d="m 143.28545,205.00054 c -3.86605,-0.91698 -6.35529,-4.4816 -6.35529,-9.1008 0,-1.52859 0.25992,-3.29976 0.60629,-4.13114 2.21132,-5.30816 9.53642,-7.28023 14.53282,-3.91252 3.38706,2.28296 4.51588,8.65305 2.26593,12.78695 -1.28065,2.35294 -2.60497,3.42992 -5.16517,4.20042 -1.94151,0.58431 -3.86676,0.6357 -5.88458,0.1571 z m 5.93016,-3.56575 c 1.60638,-1.26357 2.1979,-2.78184 2.1979,-5.64135 0,-4.19229 -1.74239,-6.45879 -4.96524,-6.45879 -2.4158,0 -3.95631,0.91101 -4.84296,2.86391 -1.52807,3.36571 -0.6889,7.82689 1.75232,9.31556 1.6685,1.01743 4.51264,0.97893 5.85798,-0.0793 z"
         id="path46"
         inkscape:connector-curvature="0" />
      <path
         style="fill:#282828;fill-opacity:1;stroke-width:0.39144176"
         d="m 167.95077,205.12849 c -0.48503,-0.10497 -1.52252,-0.79512 -2.30555,-1.53359 -0.78299,-0.73847 -1.48707,-1.34266 -1.56461,-1.34266 -0.0775,0 -0.1411,0.61652 -0.1411,1.37006 0,1.36279 -0.008,1.37004 -1.76147,1.37004 h -1.76148 v -13.70048 -13.70044 h 1.76148 1.76147 v 6.06733 c 0,3.33705 0.15587,6.06734 0.34644,6.06734 0.19052,0 0.64464,-0.45514 1.00913,-1.0114 1.8662,-2.84819 7.27692,-3.2957 9.9365,-0.82186 1.91489,1.78117 2.57875,3.7149 2.5779,7.50917 -7.6e-4,3.07375 -0.13701,3.78482 -1.06942,5.57626 -1.33552,2.56607 -3.35635,3.98008 -5.98636,4.18873 -1.05663,0.0839 -2.318,0.0665 -2.80306,-0.0383 z m 3.57703,-3.6937 c 3.03745,-2.38926 3.36067,-8.76553 0.56365,-11.11909 -2.14718,-1.80672 -5.92083,-1.05417 -7.20945,1.43773 -0.85461,1.65261 -1.15317,5.34669 -0.57397,7.10166 1.02594,3.10865 4.82269,4.46526 7.21977,2.5797 z"
         id="path48"
         inkscape:connector-curvature="0" />
    </g>
  </g>
</svg>
