<svg xmlns="http://www.w3.org/2000/svg" viewBox="0 0 70.170044 52"><path d="M22.644 35.834c2.824 0 5.13 2.312 5.13 5.144a5.125 5.125 0 0 1-5.13 5.143 5.125 5.125 0 0 1-5.13-5.143c0-2.832 2.289-5.144 5.13-5.144M65.52 18.163a15.721 15.721 0 0 0-6.166-3.836C54.78 2.714 41.678-3.003 30.097 1.584a22.472 22.472 0 0 0-5.058 2.797 22.942 22.942 0 0 0-4.647 4.57 18.46 18.46 0 0 0-2.234-.144C8.132 8.807 0 16.962 0 27.017c0 7.85 4.986 14.66 12.117 17.169C13.494 48.72 17.676 52 22.644 52c6.059 0 10.992-4.946 10.992-11.022 0-.484-.036-.95-.09-1.398l15.496-7.814-.125-.251 1.465-.735-2.984-5.932-1.466.735-.125-.251-15.478 7.778a10.924 10.924 0 0 0-7.685-3.154c-4.432 0-8.239 2.634-9.99 6.416a10.882 10.882 0 0 1-4.969-12.098c1.501-5.807 7.435-9.284 13.226-7.778a10.89 10.89 0 0 1 3.002 1.29c2.645-8.01 11.278-12.348 19.249-9.696A15.312 15.312 0 0 1 53.51 20.87c.268-.019.554-.037.822-.037 4.683 0 8.49 3.818 8.49 8.513a8.509 8.509 0 0 1-7.757 8.478h-6.238v7.348h6.56l.321-.036c8.686-.735 15.138-8.388 14.405-17.116a15.922 15.922 0 0 0-4.593-9.857" fill="#1765f6" fill-rule="evenodd"/></svg>