<svg xmlns="http://www.w3.org/2000/svg" viewBox="0 0 135.46667 135.46667" height="512" width="512"><rect ry="8.758" height="135.467" width="135.467" fill="#5487fe" fill-rule="evenodd"/><path d="M72.141 35.723c-1.416.013-2.862.082-3.837.202-7.406.913-14.342 4.52-18.982 9.87l-.49.566-3.312.02c-3.07.02-3.433.047-4.962.373-2.323.495-3.9 1.023-5.867 1.963-6.42 3.07-10.805 8.445-12.208 14.962-.383 1.776-.414 5.625-.061 7.384 1.132 5.638 4.44 10.422 9.515 13.758 1.68 1.104 3.53 1.974 5.771 2.713l1.889.622.418.904c2.556 5.518 9.169 8.768 15.69 7.71 5.492-.89 9.938-4.656 11.38-9.64.19-.656.295-1.472.343-2.657.045-1.175.122-1.753.238-1.85.092-.076 4.576-2.249 9.963-4.827 6.923-3.314 9.79-4.746 9.78-4.886-.03-.39-4.112-6.684-4.335-6.686-.119 0-4.411 2.005-9.538 4.456-5.128 2.451-9.407 4.457-9.51 4.457-.103 0-.57-.325-1.038-.721-2.095-1.778-4.467-2.867-7.328-3.365-1.738-.303-4.628-.186-6.32.256-4.053 1.058-7.381 3.603-9.147 6.995-.313.602-.628 1.096-.7 1.097-.27.003-1.85-.82-2.845-1.482-3.78-2.515-5.803-6.467-5.583-10.904.086-1.743.466-3.224 1.246-4.86 1.783-3.735 4.94-6.23 9.287-7.334.987-.25 1.451-.284 3.774-.278 2.43.006 2.75.034 3.876.34.675.183 1.797.579 2.494.878.696.3 1.284.524 1.305.499.02-.026.31-.623.64-1.326 1.552-3.302 4.197-6.161 7.575-8.187 4.537-2.72 10.362-3.609 15.76-2.405 7.729 1.724 13.706 7.526 15.064 14.62.103.54.214 1.008.247 1.04.035.033.657.082 1.386.11 1.575.058 2.577.215 3.717.582 3.436 1.107 5.775 3.482 6.79 6.892.44 1.48.497 3.74.132 5.163-.95 3.7-3.746 6.405-7.702 7.45-1.024.271-1.393.291-5.848.32-3.256.021-4.905.08-5.232.185-1.267.41-2.427 1.465-2.793 2.54-.283.83-.26 2.16.05 2.842.384.845 1.32 1.76 2.235 2.182l.806.372 5.232-.002c4.974 0 5.3-.016 6.589-.298 8.167-1.785 13.953-7.265 15.583-14.758.331-1.521.334-5.043.006-6.552-1.04-4.773-3.734-8.682-7.904-11.47a20.956 20.956 0 0 0-4.77-2.394l-1.041-.364-.797-1.56c-4.344-8.51-12.763-14.148-22.975-15.384-.854-.103-2.24-.146-3.656-.133zM53.168 78.909c.285 0 .574.024.866.07 3.877.6 5.847 4.579 3.779 7.628-1.277 1.882-3.872 2.783-6.207 2.154-.986-.265-1.67-.65-2.423-1.363-2.54-2.401-1.821-6.37 1.428-7.89.867-.406 1.7-.603 2.557-.6z" fill="#f7f7f7" fill-rule="evenodd"/><image width="317.5" height="317.5" x="-616.857" y="-532.039"/></svg>