<svg xmlns="http://www.w3.org/2000/svg" viewBox="0 0 135.46667 135.46667" height="512" width="512"><rect ry="9.83" x=".019" height="135.467" width="135.428" fill="#f7f7f7" fill-rule="evenodd"/><path d="M5.759 135.27c-2.76-.677-4.851-2.706-5.543-5.376C.02 129.143 0 123.077 0 67.714 0 13.825.025 6.271.204 5.583.878 2.996 2.994.879 5.581.206 6.27.026 13.826.002 67.736.002c67.772 0 62.043-.078 63.817.86 1.142.605 2.508 2 3.058 3.123.931 1.903.857-3.649.853 63.686-.003 41.781-.05 61.257-.148 61.773-.545 2.875-3.125 5.4-6.02 5.892-.62.105-6.132.138-18.3.111l-17.414-.038v-52.38l8.736-.036 8.735-.035.076-.445c.286-1.667 2.535-19.746 2.47-19.852-.052-.083-3.794-.132-10.09-.132h-10.01l.05-8.125c.045-7.132.08-8.231.286-9.003.766-2.87 2.433-4.549 5.324-5.362 1.51-.424 4.148-.573 9.95-.559l5.241.012.076-.308c.041-.17.058-4.245.037-9.055-.032-7.217-.071-8.767-.226-8.862-.578-.358-8.647-.77-14.553-.745-5.291.023-6.136.104-9.155.88-10.177 2.62-16.502 10.148-17.907 21.313-.095.75-.182 4.839-.224 10.444-.038 5.065-.104 9.245-.148 9.289-.043.043-3.992.095-8.775.114l-8.697.035-.035 10.18-.035 10.18 8.739.036 8.739.035.113.343c.126.382.077 51.9-.05 52.026-.044.044-14.852.075-32.908.069-27.057-.01-32.96-.044-33.582-.197z" fill="#3b5998"/></svg>