<svg xmlns="http://www.w3.org/2000/svg" height="780" width="876"><defs><linearGradient gradientUnits="userSpaceOnUse" gradientTransform="matrix(-1.00874 0 0 .99134 755.131 114.1)" id="b" y2="432.224" x2="216.112" x1="216.112"><stop offset="0%" stop-color="#268DF7"/><stop offset="100%" stop-opacity="0" stop-color="#268DF7"/></linearGradient><radialGradient gradientUnits="userSpaceOnUse" id="c" gradientTransform="matrix(-1.02938 0 0 .97146 469.586 482.136)" r="210.242" fy="158.144" fx="120.731" cy="158.144" cx="120.731"><stop offset="0%" stop-opacity="0" stop-color="#FF6C50"/><stop offset="51.712%" stop-opacity=".64" stop-color="#FF6C50"/><stop offset="100%" stop-opacity=".24" stop-color="#FF6C50"/></radialGradient><linearGradient gradientUnits="userSpaceOnUse" gradientTransform="matrix(1.00874 0 0 .99134 302.338 97.329)" id="d" y2="432.224" x2="216.112" x1="216.112"><stop offset="0%" stop-opacity=".8" stop-color="#268DF7"/><stop offset="100%" stop-opacity="0" stop-color="#268DF7"/></linearGradient><filter id="a"><feTurbulence result="turb" baseFrequency=".3" numOctaves="2" type="fractalNoise"/><feComposite in2="turb" result="result1" k4=".1" k3=".1" k2=".1" k1=".1" operator="arithmetic" in="turb"/><feComposite result="finalFilter" in2="SourceGraphic" in="result1" operator="in"/><feBlend in2="SourceGraphic" in="finalFilter" mode="multiply"/></filter></defs><g transform="translate(65.13 -83.776)" filter="url(#a)" fill-rule="evenodd" fill="none"><path fill="url(#b)" d="M581.845 460.378c-37.75 237.363-436.799-108.302-173.285-173.14C672.073 222.403 486.141 114.1 581.845 114.1s173.286 77.517 173.286 173.14c0 95.62-135.536-64.225-173.286 173.138z"/><path fill="url(#c)" d="M268.378 835.136c-94.993 0-172-77.007-172-172s98.8-212.473 172-172c73.2 40.473 73.2 222.973 172 172 98.8-50.973-77.007 172-172 172z"/><path fill="url(#d)" d="M475.624 443.607c37.75 237.363 436.799-108.302 173.285-173.14C385.396 205.632 571.328 97.33 475.624 97.33s-173.286 77.517-173.286 173.14c0 95.62 135.536-64.225 173.286 173.138z"/><path d="M260.608 103l-3.624 1.667-.984 3.53 1.158 3.36 3.45 1.443 3.249-1.639 2.143-3.165-1.62-3.674z" fill="#c1c3da"/><path d="M262.304 142l-1.812.833-.492 1.765.579 1.68 1.725.722 1.624-.82 1.072-1.582-.81-1.837z" fill="#ff6c50" fill-opacity=".64"/><path d="M234.686 124l-2.899 1.334-.787 2.823.926 2.688 2.76 1.155 2.6-1.31 1.714-2.533-1.295-2.94z" fill="#4234f8" fill-opacity=".64"/></g></svg>