<svg xmlns="http://www.w3.org/2000/svg" height="764" width="876"><defs><linearGradient gradientUnits="userSpaceOnUse" gradientTransform="matrix(1.00874 0 0 .99134 185 195)" id="b" y2="432.224" x2="216.112" x1="216.112"><stop offset="0%" stop-color="#4234F8"/><stop offset="100%" stop-opacity="0" stop-color="#4234F8"/></linearGradient><radialGradient gradientUnits="userSpaceOnUse" id="c" gradientTransform="matrix(1.1088 0 0 .90187 -98.642 -87.764)" r="223.808" fy="165.518" fx="127.076" cy="165.518" cx="127.076"><stop offset="0%" stop-opacity="0" stop-color="#FF6C50"/><stop offset="51.712%" stop-opacity=".64" stop-color="#FF6C50"/><stop offset="100%" stop-opacity=".24" stop-color="#FF6C50"/></radialGradient><linearGradient gradientUnits="userSpaceOnUse" gradientTransform="matrix(-1.00874 0 0 .99134 611 195)" id="d" y2="432.224" x2="216.112" x1="216.112"><stop offset="0%" stop-opacity=".8" stop-color="#4234F8"/><stop offset="100%" stop-opacity="0" stop-color="#4234F8"/></linearGradient><filter id="a"><feTurbulence result="turb" baseFrequency=".3" numOctaves="2" type="fractalNoise"/><feComposite in2="turb" result="result1" k4=".1" k3=".1" k2=".1" k1=".1" operator="arithmetic" in="turb"/><feComposite result="finalFilter" in2="SourceGraphic" in="result1" operator="in"/><feBlend in2="SourceGraphic" in="finalFilter" mode="multiply"/></filter></defs><g transform="translate(117.403 115.14)" filter="url(#a)" fill-rule="evenodd" fill="none"><path fill="url(#b)" d="M358.286 541.278c37.75 237.363 436.799-108.302 173.285-173.139C268.058 303.302 453.99 195 358.286 195S185 272.517 185 368.14c0 95.621 135.536-64.225 173.286 173.138z"/><path fill="url(#c)" d="M152.358 256.236c94.993 0 172-77.007 172-172s-77.007-172-172-172 46.934 178.387-172 172c-218.934-6.387 77.007 172 172 172z"/><path fill="url(#d)" d="M437.714 541.278C399.964 778.641.915 432.976 264.429 368.139 527.942 303.302 342.01 195 437.714 195S611 272.517 611 368.14c0 95.621-135.536-64.225-173.286 173.138z"/><path d="M640.608 179l-3.624 1.667-.984 3.53 1.158 3.36 3.45 1.443 3.249-1.639 2.143-3.165-1.62-3.674z" fill="#C1C3DA"/><path d="M642.304 218l-1.812.833-.492 1.765.579 1.68 1.725.722 1.624-.82 1.072-1.582-.81-1.837z" fill="#FF6C50" fill-opacity=".64"/><path d="M614.686 200l-2.899 1.334-.787 2.823.926 2.688 2.76 1.155 2.6-1.31 1.714-2.533-1.295-2.94z" fill="#268DF7" fill-opacity=".64"/></g></svg>