<svg xmlns="http://www.w3.org/2000/svg" xmlns:xlink="http://www.w3.org/1999/xlink" height="582" width="1440"><defs><linearGradient gradientUnits="userSpaceOnUse" gradientTransform="matrix(1.22475 .5453 -.30339 .68142 49.073 103.646)" id="b" y2="494.247" x2="213.098" y1="121.296" x1="213.098"><stop offset="0%" stop-opacity="0" stop-color="#606483"/><stop offset="100%" stop-opacity=".72" stop-color="#0B0D19"/></linearGradient><linearGradient gradientUnits="userSpaceOnUse" gradientTransform="matrix(1.46409 .65185 -.2538 .57002 17.26 92.535)" id="c" y2="364.373" x2="167.994" y1="210.028" x1="188.758"><stop offset="0%" stop-color="#0B0D19"/><stop offset="100%" stop-opacity="0" stop-color="#0B0D19"/></linearGradient><radialGradient id="a" gradientTransform="matrix(.24796 -.96592 .92535 .25883 -.151 .643)" r="57.93%" fy="43.394%" fx="33.3%" cy="43.394%" cx="33.3%"><stop offset="0%" stop-opacity="0" stop-color="#FF6C50"/><stop offset="51.712%" stop-opacity=".64" stop-color="#FF6C50"/><stop offset="100%" stop-opacity=".24" stop-color="#FF6C50"/></radialGradient><filter id="e"><feTurbulence result="turb" baseFrequency=".3" numOctaves="2" type="fractalNoise"/><feComposite in2="turb" result="result1" k4=".1" k3=".1" k2=".1" k1=".1" operator="arithmetic" in="turb"/><feComposite result="finalFilter" in2="SourceGraphic" in="result1" operator="in"/><feBlend in2="SourceGraphic" in="finalFilter" mode="multiply"/></filter><radialGradient gradientUnits="userSpaceOnUse" r="215.554" fy="191.852" fx="189.875" cy="191.852" cx="189.875" gradientTransform="matrix(.93056 0 0 1.07463 -148 6)" id="d" xlink:href="#a"/></defs><g fill-rule="evenodd" fill="none"><path fill="url(#b)" d="M143.262 512.8c45.348 147.13 301.566 19.012 321.783-26.397C485.262 440.996 399.4 358.66 273.265 302.5 147.131 246.342 28.49 237.627 8.273 283.035c-20.218 45.409 89.641 82.637 134.989 229.766z"/><path fill="url(#c)" d="M194.818 437.487c67.225 65.427 152.697 40.575 165.262 12.356 12.563-28.218-41.058-79.501-119.766-114.544-78.708-35.043-152.697-40.576-165.261-12.357-12.563 28.218 52.539 49.116 119.765 114.545z"/><path d="M-44.936 321.218C83.22 334.216 147.444 478.277 173.691 427.85c26.247-50.427-44.059-106.456 60.397-202.707 104.457-96.252-143.2-285.785-172.392-122.551C32.503 265.825-173.091 308.22-44.936 321.218z" fill="url(#d)" filter="url(#e)" transform="translate(1176 -33)"/></g></svg>