<svg xmlns="http://www.w3.org/2000/svg" viewBox="0 0 135.46667 135.46667" height="512" width="512"><rect ry="8.82" height="135.467" width="135.467" fill="#363434" fill-rule="evenodd"/><g data-name="Github" fill="#f7f7f7"><path d="M67.72 8.378A60.866 60.866 0 0 0 48.483 126.98c3.04.56 4.16-1.32 4.16-2.929 0-1.451-.055-6.244-.085-11.33-16.93 3.68-20.503-7.178-20.503-7.178-2.768-7.034-6.759-8.915-6.759-8.915-5.518-3.778.425-3.697.425-3.697 6.109.424 9.34 6.274 9.34 6.274 5.428 9.3 14.237 6.614 17.71 5.056.547-3.935 2.122-6.618 3.862-8.138-13.533-1.528-27.745-6.741-27.745-30.068a23.552 23.552 0 0 1 6.27-16.335c-.633-1.532-2.717-7.722.59-16.106 0 0 5.094-1.634 16.738 6.24a57.733 57.733 0 0 1 30.48 0c11.614-7.874 16.72-6.24 16.72-6.24 3.312 8.384 1.228 14.574.6 16.106a23.505 23.505 0 0 1 6.261 16.335c0 23.378-14.238 28.519-27.788 30.03 2.182 1.889 4.126 5.59 4.126 11.27 0 8.143-.068 14.697-.068 16.7 0 1.622 1.095 3.52 4.181 2.921A60.866 60.866 0 0 0 67.721 8.378z" fill-rule="evenodd"/><path d="M29.914 95.75c-.136.3-.611.394-1.044.186-.433-.208-.688-.611-.548-.917.14-.305.607-.399 1.049-.19.441.207.696.615.543.916zm2.466 2.755c-.288.267-.849.144-1.243-.28-.395-.425-.472-.994-.179-1.274s.85-.145 1.248.28c.4.425.476.993.174 1.274zm2.399 3.505c-.374.26-.985 0-1.359-.525-.373-.527-.373-1.19 0-1.448.374-.259.977-.025 1.363.51.386.534.37 1.197 0 1.464zm3.286 3.384c-.336.37-1.045.268-1.563-.233s-.679-1.189-.348-1.554c.331-.365 1.053-.263 1.575.234.522.496.688 1.188.336 1.553zm4.533 1.97c-.148.475-.849.692-1.52.488-.67-.204-1.137-.764-1.001-1.248.136-.484.849-.705 1.524-.488.675.216 1.137.76.993 1.248zm4.984.361c0 .5-.569.917-1.274.93-.704.012-1.315-.391-1.324-.888-.008-.496.569-.917 1.299-.93.73-.012 1.316.391 1.316.888zm4.636-.785c.085.488-.425.993-1.134 1.124-.709.132-1.362-.174-1.452-.658-.089-.484.425-1.006 1.13-1.137.704-.132 1.362.17 1.456.666zm0 0"/></g></svg>