<svg viewBox="0 0 27 27" xmlns="http://www.w3.org/2000/svg"><path d="M.154 5.721C-.021 5.546-.08.41.154.175c.234-.233 5.371-.233 5.546 0 .175.234.175 5.371 0 5.546-.175.176-5.43.176-5.546 0zm21.093 0c-.175-.175-.234-5.312 0-5.546.234-.233 5.371-.233 5.546 0 .175.234.175 5.371 0 5.546-.175.176-5.43.176-5.546 0zM7.14 12.708c-.175-.176-.233-5.313 0-5.547.234-.233 5.371-.233 5.546 0 .176.234.176 5.371 0 5.547-.175.175-5.429.175-5.546 0zm6.986 0c-.175-.176-.233-5.313 0-5.547.234-.233 5.372-.233 5.547 0 .175.234.175 5.371 0 5.547-.175.175-5.43.175-5.547 0zM7.14 19.694c-.175-.175-.233-5.313 0-5.546.234-.234 5.371-.234 5.546 0 .176.233.176 5.37 0 5.546-.175.175-5.429.175-5.546 0zm6.986 0c-.175-.175-.233-5.313 0-5.546.234-.234 5.372-.234 5.547 0 .175.233.175 5.37 0 5.546-.175.175-5.43.175-5.547 0zM.154 26.68c-.175-.175-.234-5.313 0-5.546.234-.234 5.371-.234 5.546 0 .175.233.175 5.37 0 5.546-.175.175-5.43.175-5.546 0zm21.093 0c-.175-.175-.234-5.313 0-5.546.234-.234 5.371-.234 5.546 0 .175.233.175 5.37 0 5.546-.175.175-5.43.175-5.546 0z" class="logo-square" fill-rule="evenodd"/></svg>