<svg xmlns="http://www.w3.org/2000/svg" viewBox="0 0 135.46667 135.46667" height="512" width="512"><rect ry="18.932" width="292.969" height="292.969" x="3.516" y="3.516" style="marker:none" overflow="visible" fill="#363434" fill-rule="evenodd" transform="translate(-1.626 -1.626) scale(.4624)"/><path d="M17.795 6.669c-1.574 0-3.09.236-4.537.635l10.693 9.508-11.98 13.294-10.923-9.681a16.971 16.971 0 0 0-.333 3.323c0 9.426 7.654 17.08 17.08 17.08a16.95 16.95 0 0 0 5.158-.81l13.814 12.225c2.625-5.701 6.502-10.576 11.242-14.19l-13.322-11.79c.12-.816.188-1.666.188-2.515v-.115c-.074-9.379-7.701-16.964-17.08-16.964zM99.87 83.946c-2.204 5.928-5.726 11.116-10.159 15.114l11.127 9.855a17.035 17.035 0 0 0-.246 2.803c0 9.426 7.654 17.08 17.08 17.08 1.705 0 3.344-.257 4.898-.722l-11.126-9.884 11.95-13.207 11.068 9.826c.186-1.008.29-2.031.29-3.093v-.144c-.074-9.379-7.701-16.935-17.08-16.935-1.71 0-3.356.254-4.913.722zm17.802-77.277c-9.38 0-17.006 7.585-17.08 16.964v.115c0 .849.068 1.699.188 2.514L87.457 38.053c4.741 3.614 8.618 8.489 11.242 14.19l13.814-12.224c1.63.518 3.358.809 5.159.809 9.426 0 17.08-7.654 17.08-17.08a16.97 16.97 0 0 0-.333-3.323l-10.924 9.681-11.979-13.294 10.693-9.508a17.028 17.028 0 0 0-4.537-.635zM35.597 83.946l-12.89 11.415a17.006 17.006 0 0 0-4.912-.722c-9.379 0-17.006 7.556-17.08 16.935v.144c0 1.062.104 2.085.29 3.093l11.068-9.826 11.95 13.207-11.127 9.884c1.554.465 3.194.722 4.899.722 9.426 0 17.08-7.654 17.08-17.08 0-.956-.094-1.89-.246-2.803l11.126-9.855c-4.432-3.998-7.954-9.186-10.158-15.114z" style="marker:none" overflow="visible" fill="#f7f7f7" fill-rule="evenodd"/><path d="M67.733 34.21c-17.617 0-31.905 15.828-31.905 35.358 0 12.077 5.478 22.738 13.814 29.117a6.266 6.266 0 0 0-.867 3.193c-.001 3.435 2.736 6.228 6.112 6.228 3.377 0 6.114-2.793 6.113-6.228 0-.245-.017-.485-.044-.722h.838a6.01 6.01 0 0 0 5.939 6.95 6.01 6.01 0 0 0 5.94-6.95h1.068a6.01 6.01 0 0 0 5.939 6.95 6.01 6.01 0 0 0 6.011-6.011c0-1.222-.37-2.36-.997-3.31 8.41-6.366 13.944-17.077 13.944-29.217 0-19.53-14.288-35.358-31.905-35.358zM54.02 60.595c1.793-.007 3.597.557 5.13 1.474 1.314.957 2.342 2.267 3.121 3.685.677 1.767-.266 3.786-1.69 4.884-1.086.726-2.134 1.577-3.41 1.95-1.565.518-3.04 1.244-4.509 1.98-.72.408-1.261 1.004-1.445 1.82-.507.824-.036 1.923-.592 2.674-.843.613-1.798-.121-2.457-.65-1.442-1.06-2.71-2.524-3.077-4.32-.284-1.52-.599-3.074-.42-4.625.023-1.881.923-3.623 2.081-5.057 1.316-1.788 3.226-3.329 5.491-3.613.588-.134 1.18-.2 1.777-.202zm27.426 0c.598.002 1.19.068 1.777.202 2.266.284 4.176 1.825 5.491 3.613 1.159 1.434 2.059 3.176 2.081 5.057.18 1.551-.135 3.105-.419 4.624-.368 1.797-1.635 3.26-3.078 4.32-.659.53-1.613 1.264-2.456.651-.557-.751-.086-1.85-.593-2.673-.183-.817-.724-1.413-1.445-1.82-1.467-.737-2.943-1.463-4.508-1.98-1.276-.374-2.324-1.225-3.41-1.951-1.424-1.098-2.367-3.117-1.69-4.884.778-1.418 1.807-2.728 3.12-3.685 1.534-.917 3.337-1.48 5.13-1.474zm-13.612 18.15c1.709.046 3.396 7.13 2.963 9.926-1.426 4.195-1.161-2.737-2.963-2.818-1.88.006-2.23 6.854-3.207 2.833-.309-3.039 1.65-9.985 3.207-9.942z" fill="#f7f7f7"/></svg>