<svg xmlns="http://www.w3.org/2000/svg" xmlns:xlink="http://www.w3.org/1999/xlink" height="347" width="1440"><defs><linearGradient id="a" y2="100%" x2="50%" y1="0%" x1="50%"><stop offset="0%" stop-opacity="0" stop-color="#606483"/><stop offset="100%" stop-opacity=".72" stop-color="#0B0D19"/></linearGradient><linearGradient gradientUnits="userSpaceOnUse" gradientTransform="scale(1.60264 .62397)" id="d" y2="364.373" x2="167.994" y1="210.028" x1="188.758"><stop offset="0%" stop-color="#0B0D19"/><stop offset="100%" stop-opacity="0" stop-color="#0B0D19"/></linearGradient><linearGradient gradientUnits="userSpaceOnUse" gradientTransform="scale(1.34245 .7449)" y2="313.828" x2="151.317" y1="26.295" x1="151.317" id="b" xlink:href="#a"/><linearGradient gradientUnits="userSpaceOnUse" gradientTransform="scale(1.34066 .7459)" y2="494.247" x2="213.098" y1="121.296" x1="213.098" id="c" xlink:href="#a"/></defs><g fill-rule="evenodd" fill="none"><path fill="url(#b)" transform="rotate(6 -80.175 5125.816)" d="M177.486 208.219c78.18 89.285 218.65-81.067 218.65-119.337 0-38.27-86.408-69.295-193-69.295-106.59 0-193 31.024-193 69.295 0 38.27 89.17 30.051 167.35 119.337z"/><path transform="rotate(24 381.92 34.554)" fill="url(#c)" d="M252.464 335.471c101.27 115.965 283.227-105.29 283.227-154.996 0-49.705-111.929-90-250-90s-250 40.295-250 90c0 49.706 115.503 39.032 216.773 154.996z"/><path transform="rotate(24 398.741 -3.227)" fill="url(#d)" d="M302.512 242.909c88.025 32.428 156-25.04 156-55.93 0-30.888-69.844-55.928-156-55.928-86.157 0-156 25.04-156 55.929 0 30.888 67.974 23.5 156 55.929z"/></g></svg>