<svg xmlns="http://www.w3.org/2000/svg" height="318" width="1440"><defs><linearGradient gradientUnits="userSpaceOnUse" gradientTransform="scale(1.85554 .53893)" id="b" y2="207.979" x2="21.061" y1="-395.994" x1="61.645"><stop offset="0%" stop-opacity="0" stop-color="#FFF"/><stop offset="100%" stop-color="#FF6C50"/></linearGradient><linearGradient gradientUnits="userSpaceOnUse" gradientTransform="matrix(-1.0707 .80683 -.4489 -.5957 1660.67 149.735)" id="c" y2="537.148" x2="211.606" y1="164.197" x1="211.606"><stop offset="0%" stop-opacity="0" stop-color="#606483"/><stop offset="100%" stop-opacity=".72" stop-color="#0B0D19"/></linearGradient><linearGradient gradientUnits="userSpaceOnUse" gradientTransform="matrix(-1.15284 1.11329 -.43345 -.44885 1741.307 -61.141)" id="d" y2="385.638" x2="212.231" y1="231.293" x1="232.996"><stop offset="0%" stop-opacity=".32" stop-color="#0B0D19"/><stop offset="100%" stop-opacity="0" stop-color="#0B0D19"/></linearGradient><filter id="a"><feTurbulence result="turb" baseFrequency=".3" numOctaves="2" type="fractalNoise"/><feComposite in2="turb" result="result1" k4=".1" k3=".1" k2=".1" k1=".1" operator="arithmetic" in="turb"/><feComposite result="finalFilter" in2="SourceGraphic" in="result1" operator="in"/><feBlend in2="SourceGraphic" in="finalFilter" mode="multiply"/></filter></defs><g fill-rule="evenodd" fill="none"><path filter="url(#a)" fill="url(#b)" transform="translate(973)" d="M88.494 90c67.04 7.177 161.094-24.753 224.996-90H.2c25.3 48.079 42.361 85.083 88.294 90z"/><path fill="url(#c)" d="M1239.492 6.993c-150.668-31.668-162.83 254.539-132.917 294.236 29.914 39.696 143.554 4.516 253.823-78.577 110.268-83.093 175.409-182.635 145.495-222.33-29.914-39.698-115.735 38.338-266.401 6.671z" transform="translate(-78)"/><path fill="url(#d)" d="M1294.744 13.97c-85.848 37.821-94.823 126.38-73.366 148.6 21.457 22.218 89.093-8.286 151.069-68.135 61.975-59.85 94.823-126.38 73.365-148.6-21.457-22.219-65.222 30.315-151.068 68.136z" transform="translate(-78)"/></g></svg>