<svg xmlns="http://www.w3.org/2000/svg" viewBox="0 0 135.46667 135.46667" height="512" width="512"><rect ry="8.82" height="135.467" width="135.467" fill="#363434" fill-rule="evenodd"/><path d="M1.5 1.633C-.386 3.592 0 5.673 0 11.995c0 5.25-.916 10.513 3.878 11.752 1.497.385 14.761.385 16.256-.002 1.996-.515 3.62-2.134 3.842-4.957.031-.394.031-13.185-.001-13.587-.236-3.007-2.087-4.74-4.526-5.091C18.89.029 18.778.005 15.91 0 5.737.005 3.507-.448 1.5 1.633z" fill="url(#SVGID_1_)" transform="translate(.2 .008) scale(5.64444)"/><path d="M67.735 14.826c-21.675 0-42.257-1.928-50.119 18.248-3.247 8.333-2.775 19.156-2.775 34.652 0 13.598-.436 26.378 2.775 34.646 7.844 20.188 28.593 18.254 50.107 18.254 20.755 0 42.155 2.16 50.112-18.254 3.253-8.417 2.776-19.078 2.776-34.646 0-20.666 1.14-34.007-8.883-44.024-10.147-10.148-23.87-8.876-44.017-8.876zm-4.74 9.533c45.212-.072 50.966-5.098 47.79 64.725-1.128 24.695-19.931 21.985-43.044 21.985-42.144 0-43.356-1.206-43.356-43.367 0-42.65 3.343-43.32 38.61-43.355zm32.974 8.78a6.346 6.346 0 1 0 .002 12.693 6.346 6.346 0 0 0-.002-12.692zm-28.234 7.42c-15.001 0-27.16 12.166-27.16 27.167 0 15 12.159 27.16 27.16 27.16 15 0 27.154-12.16 27.154-27.16 0-15.001-12.153-27.166-27.154-27.166zm0 9.534c23.31 0 23.34 35.266 0 35.266-23.305 0-23.34-35.266 0-35.266z" fill="#f7f7f7"/></svg>