<svg xmlns="http://www.w3.org/2000/svg" viewBox="0 0 13.229167 13.229167" height="50" width="50"><g fill="#f7f7f7"><path d="M6.47.37c-.022.027-.037.482-.043 1.355-.008.997-.02 1.323-.05 1.353-.095.096-.108-.018-.08-.742.031-.803.023-.859-.12-.859-.144 0-.159.078-.159.862 0 .72-.008.798-.083.798-.057 0-.054.07-.045-1.012l.007-.933-.079-.036c-.21-.096-.215-.072-.215.986 0 .807-.007.96-.05 1.02-.088.126-.11.078-.11-.246 0-.391-.053-.482-.216-.367-.064.045-.07.076-.07.33 0 .586-.152.673-.2.115-.025-.29-.28-.076-.28.236 0 .17-.014.237-.061.295-.112.137-.129.05-.138-.724l-.008-.733-.075-.01c-.177-.026-.196.043-.198.71-.002.745-.03 1.035-.104 1.076-.095.054-.102.046-.118-.132-.035-.386-.323-.204-.34.215l-.01.248-.206.185C2.025 5.614 1.425 7.8 2.006 9.506c.68 1.992 2.807 3.429 4.874 3.291.167-.01.397-.026.51-.034l.208-.014-.207.045c-1.583.344-3.498-.363-4.527-1.67-.074-.094-.134-.162-.134-.15 0 .055.31.413.58.671.851.812 1.831 1.213 3.064 1.252.68.02 1.527-.094 1.528-.208 0-.012.033-.024.074-.027.122-.007.756-.288 1.075-.476a8.08 8.08 0 0 1 .396-.223c.14-.067.553-.452.794-.741 1.65-1.985 1.596-4.854-.127-6.63l-.25-.257V4.15c0-.1.012-.184.025-.184.074 0 .003-.076-.123-.132-.156-.069-.208-.06-.14.022.036.043.036.056 0 .078-.024.015-.034.055-.024.093.022.083-.032.086-.128.005-.067-.055-.072-.086-.072-.407 0-.367-.03-.464-.158-.497-.1-.027-.13.045-.142.348-.012.291-.03.32-.144.225-.036-.03-.04-.138-.024-.596.021-.577.017-.606-.092-.663-.146-.077-.174-.008-.174.425 0 .243-.013.397-.032.397-.04 0-.042.105-.003.145.046.048-.038.104-.114.076-.096-.035-.116-.32-.088-1.308.024-.887.01-.988-.143-.988-.12 0-.129.062-.15 1.104-.024 1.128-.016 1.048-.105 1.02-.06-.019-.066-.05-.074-.343-.015-.526-.225-.564-.242-.044-.01.267-.013.278-.08.268-.07-.01-.07-.015-.066-.552.004-.568-.001-.59-.14-.59-.114-.001-.136.094-.136.606 0 .482 0 .483-.072.473-.071-.01-.072-.016-.088-.681l-.016-.67-.091-.01c-.154-.018-.163.016-.18.69-.015.602-.019.629-.08.629-.063 0-.063-.018-.051-1.326.011-1.22.008-1.33-.042-1.381C6.61.318 6.518.312 6.47.369m.361 3.152c.011.018-.015.031-.062.031-.045 0-.081-.014-.081-.031 0-.018.027-.032.061-.032.035 0 .071.014.082.032m.448.034c.012.018.014.041.005.05-.025.025-.15-.02-.15-.055 0-.04.12-.037.145.005m.813.03c.043.027.043.03 0 .03a.21.21 0 0 1-.096-.03c-.042-.028-.042-.032 0-.032.027 0 .07.014.096.031m-.433.02c.027.01.05.033.05.05 0 .044-.136.018-.152-.03-.014-.043.022-.05.102-.02m.91.026c.03.037.026.042-.029.028-.08-.021-.119-.074-.055-.074.026 0 .063.02.084.046m1.023.003c0 .039.239.175.306.175.075 0-.018-.112-.133-.161-.175-.075-.173-.075-.173-.014m-3.21.023c.007.022.022.866.033 1.875.022 1.939.023 1.948.165 1.948.117 0 .122-.091.111-2.006l-.01-1.862.075.01.075.011.016 1.077c.016 1.063.017 1.077.088 1.148.18.18.198.077.2-1.134l.002-1.079.07.01.071.01.016 1.208c.017 1.273.02 1.298.163 1.298.122 0 .129-.069.121-1.257L7.572 3.76l.07-.01c.067-.01.068-.006.068.566 0 .586.026.707.152.704.108-.002.12-.06.12-.597.002-.624-.003-.595.08-.551.06.032.063.066.063.592 0 .606.034.78.154.78.116 0 .13-.068.135-.618.004-.582.017-.62.174-.518l.08.052v.798c0 .755.003.8.064.86.188.19.223.066.223-.783v-.724l.072.047c.065.044.073.08.088.406.014.328.022.364.09.42.16.127.191.076.205-.323l.008-.24.135.144c.074.08.148.156.165.17.097.08.45.437.526.533l.09.111-.088-.127a4.976 4.976 0 0 0-.23-.297c-.079-.093-.134-.178-.123-.189.03-.03.14.082.344.356.17.228.232.34.445.803 1.355 2.939-.657 6.154-3.917 6.26C2.789 12.516.589 7.7 3.372 4.96c.267-.262.277-.266.29-.107.024.299.25.122.286-.225.02-.197.037-.24.112-.3.12-.096.12-.094.138.4.016.416.02.437.085.446.153.022.203-.119.203-.58 0-.461.014-.55.087-.577.078-.03.088 0 .1.303.019.488.292.475.292-.014 0-.3.034-.466.096-.466.074 0 .094.139.095.656 0 .426.018.493.13.493.121 0 .141-.086.157-.683.014-.484.024-.578.064-.578.075 0 .088.138.092.965.004.753.006.773.072.809.177.095.204-.02.193-.83-.011-.773.007-1.024.074-1.024.065 0 .073.055.078.526.005.441.024.536.11.57.124.047.146-.038.15-.569.002-.28.01-.521.018-.535.024-.037.076-.028.09.016m1.734.115c.007.02-.018.037-.054.037-.037 0-.067-.006-.067-.014a.33.33 0 0 0-.02-.064c-.015-.041-.005-.045.055-.023.04.015.08.044.086.064m.454-.011c.051.03.062.046.03.047a.224.224 0 0 1-.112-.046c-.08-.06-.022-.06.082-.001m.497.127c.034.025.046.047.028.047A.217.217 0 0 1 9 3.89c-.034-.026-.047-.048-.028-.048.018 0 .062.02.096.046m-.515.022c.067.03.12.154.067.154-.063 0-.177-.085-.177-.133 0-.069.004-.07.11-.021m.467.259c.07.055.102.15.049.15-.048 0-.095-.05-.125-.135-.023-.065.005-.07.076-.015m.572.492c0 .06-.032.052-.117-.028-.04-.038-.074-.098-.074-.133 0-.059.009-.056.096.027.052.05.095.11.095.134M4.39 11.94c.272.152.757.35 1.072.436.156.043.254.08.216.08-.329.012-1.678-.606-1.818-.832-.012-.02.063.021.166.09.104.07.267.172.364.226m.559.401c.158.063.387.139.51.17.122.03.204.06.182.068-.13.043-1.238-.4-1.459-.583-.035-.03.059.011.208.09.15.078.4.193.559.255" fill-rule="evenodd"/><path d="M3.554 8.795v-.762h.218v.338c0 .185.006.337.012.337a.3.3 0 0 0 .07-.068c.156-.185.453-.165.559.037.039.075.045.135.052.483l.008.397h-.222v-.31c0-.45-.043-.56-.216-.56-.11 0-.203.075-.237.191a2.114 2.114 0 0 0-.026.382v.297h-.218zm-.517.759c-.134-.038-.157-.112-.157-.503v-.343h-.175v-.174h.175v-.238l.103-.03.103-.03.007.149.006.149h.238v.174h-.24v.312c0 .283.004.316.043.351.03.027.066.036.12.03.075-.01.077-.008.077.07 0 .073-.007.082-.068.094a.427.427 0 0 1-.232-.01zm1.993.004c-.213-.068-.322-.236-.322-.494 0-.25.083-.405.268-.497.326-.162.646.055.646.44V9.1h-.696v.056c0 .077.058.17.134.215.08.047.296.049.386.002.088-.045.09-.045.09.044 0 .068-.01.08-.08.11a.943.943 0 0 1-.427.031zm.375-.666a.222.222 0 0 0-.269-.219c-.098.019-.21.146-.21.24 0 .03.036.035.24.035h.239zm.478-.053V8.12h.218v.338c0 .185.008.337.017.337.01 0 .134-.152.276-.337l.258-.338h.13c.123 0 .13.003.099.038-.239.283-.52.642-.515.658.004.01.125.164.268.34.365.448.344.401.179.401h-.14l-.272-.358c-.15-.198-.279-.353-.286-.345a2.53 2.53 0 0 0-.014.358v.345h-.218zm1.241.206v-.511h.218v.18l.096-.089c.142-.131.325-.149.46-.043.107.084.126.167.136.589l.01.386H7.82v-.321c0-.352-.021-.466-.093-.516-.06-.042-.174-.043-.254-.002-.104.054-.132.165-.132.524v.315h-.218zm1.507.512c-.215-.05-.353-.249-.353-.506 0-.085.014-.183.033-.23.123-.295.53-.404.809-.217.188.127.25.481.126.711a.425.425 0 0 1-.288.234.614.614 0 0 1-.327.008zm.33-.198c.09-.07.122-.155.122-.314 0-.233-.097-.359-.276-.359-.134 0-.22.051-.27.16-.084.187-.038.435.098.518.093.056.251.054.326-.005zm1.042.206a.386.386 0 0 1-.128-.086.675.675 0 0 0-.087-.074c-.005 0-.008.034-.008.076 0 .076 0 .076-.098.076h-.098V8.033h.196v.338c0 .185.008.337.019.337.01 0 .036-.025.056-.056.104-.159.405-.183.553-.046.106.1.143.207.143.418 0 .17-.008.21-.06.31a.398.398 0 0 1-.332.233.726.726 0 0 1-.156-.002zm.199-.206c.169-.133.187-.487.031-.618-.12-.1-.33-.059-.4.08a.67.67 0 0 0-.033.395c.057.173.268.248.402.143z"/></g></svg>