<svg version="1" xmlns="http://www.w3.org/2000/svg" width="933.333" height="933.333" viewBox="0 0 700.000000 700.000000"><path d="M356.8 6.7c-.6.8-1.3 2.2-1.5 3.2-.7 3.7-1.2 22.8-1.8 61.1-1.1 71.3-1.5 81.7-3 85.2-.8 2.1-3 2.4-4.2.6-.4-.7-.6-11.4-.4-23.8.8-47.7.6-59.4-.6-61.7-1.5-2.5-4.6-3.3-8.5-2-5.1 1.6-5.6 6.1-6.2 54.7-.3 18.3-.8 31.6-1.5 33.2-1.1 2.9-3.4 3.7-4.8 1.5-.4-.6-.8-24.8-.8-53.7V52.5l-3.5-1.7c-9.1-4.4-11-1.4-11.6 18.5-.2 7.8-.6 30.4-.8 50.2-.3 28.7-.7 36.7-1.8 39.5-1.7 4-4.3 6.6-5.2 5.1-.8-1.2-1.4-9.4-1.7-21-.3-15.5-3.1-20.1-9.7-16.7-4.4 2.3-5.3 4.6-5.8 14.5-.9 19.1-1.3 23.8-2.6 27.4-.7 2.2-1.7 4-2.2 4-1.7.3-4.4-5.6-5.1-10.8-.6-5-1.1-7.9-2-12.5-.7-3.7-3.4-5.3-5.9-3.6-5.4 3.5-8.1 10.3-9 22.9-.7 10.3-4.2 17.3-7.6 15.2-1.9-1.2-2.8-18-3.4-62.2-.1-10.6-.5-19.5-.8-19.8-.3-.4-2.4-.8-4.6-1-8.2-.6-9 2.5-9.7 38.5-.5 28-1.1 41-2.2 49-.3 2.5-.6 5.1-.6 5.8 0 .8-1.3 2.7-2.9 4.4-2.6 2.8-3.1 3-4.4 1.6-.8-.8-1.6-3-1.8-4.9-1.6-14.4-6.1-18.6-12.5-11.4-4.5 5.2-6.8 14.3-7 28.2-.1 4.8-.4 5.5-4.3 9-2.4 2.1-9.9 9.4-16.8 16.3-38.5 38.5-66.2 92.9-75.9 149-2.8 16.3-3 17.3-3.7 29-1.7 24.9-.7 41.6 4.3 70.3 1.1 6.4 6.6 24.9 10.5 34.7 15.8 40.7 42.7 77.7 78.3 107.7 32.4 27.2 71 47.1 111.2 57.2 11.8 3 12.8 3.2 21.3 4.6 2.5.4 5.4.9 6.5 1.1 10.2 1.9 43.4 2.5 61.5 1.1 20.1-1.6 22.4-1.7 21.9-1.3-.2.3-1.6.7-2.9.9-3.4.7-19.6 3.5-24 4.2-1.9.4-12 .8-22.5 1-24.1.4-37.4-1.1-64.5-7-.8-.2-1.5-.4-1.5-.5 0-.1-.7-.3-1.5-.5-11.1-2.6-21-5.9-35.5-11.8C222.6 661 187.3 635.8 161 605c-8.4-9.8-11.3-12.8-10.2-10.5.6 1.1 5.3 7 10.5 13 40.6 47.2 88.6 75.5 145.7 85.9 17.3 3.2 28.8 4.1 53.5 4.1 11.6 0 24.8-.4 29.5-.8 13.3-1.3 17.2-1.7 20-2.2 1.4-.3 4.3-.8 6.5-1.1 6.4-1 15.5-4.1 17.9-6.1 1.1-1.1 4.5-2.5 7.5-3.3 16-3.8 69.9-31 86.1-43.3 8.3-6.4 30.7-29 39.2-39.7 26.5-33.5 44.1-69.1 54.2-110 3-11.9 4-16.9 6.1-31 2.5-17.1 2.6-56.8.1-71-.2-1.4-.7-4.6-1-7.1-1.1-7.5-1.5-9.8-4.7-22.8-5.2-21.1-12.2-39.8-22.1-59.1-4.7-9-21.5-35.2-25.5-39.5-1-1.1-3.6-4.3-5.8-7-2.2-2.8-8.8-10-14.7-16l-10.7-11-.1-9.6c0-7.5.3-9.9 1.5-10.9 1.4-1.1 1.4-1.5 0-2.9-2.3-2.6-13.1-7.5-14.9-6.8-1.5.6-1.5.9-.1 3.1 1.5 2.3 1.5 2.7 0 5-.9 1.3-1.6 3.3-1.5 4.3.5 4.6-.7 4.9-5.6 1.3-3.9-2.9-4.6-5.8-5.1-21.9-.5-19.7-1.9-25.2-6.8-27.5-6.8-3.2-8.8.7-9.9 19.4-.6 9.8-1.3 12.7-3.1 13.4-1.4.5-5.4-2.7-5.7-4.7-.1-.7-.2-15-.3-31.8 0-33.6.1-32.9-6.2-35.5-7.2-3-7.9-.7-8.7 27.9-.3 8.8-.9 16.4-1.5 17.1-1.7 2-1.9 5.9-.4 8.2 1.1 1.7 1.1 2.3.1 3.1-2.6 2-4.8 2.2-6.9.4-3.8-3.1-4.6-12-4.3-49.1.2-18.4.4-40.3.4-48.5.2-20.9-.8-25.9-5.4-27.1-7.8-1.9-9.2 2.1-10.1 28.3-.2 7-.7 23.6-1 36.8-.6 30-1.5 49.6-2.1 50.7-.8 1.2-4 1-5.2-.5-1.2-1.4-1.9-6.6-2.7-19.5-1.8-27.9-11.5-28.1-13-.3-.8 13.1-1 14.1-4 14.1-1.3 0-2.7-.6-3.1-1.2-.5-.7-.9-13.4-1-28.3-.2-25.1-.9-32.4-3.1-32.6-.5 0-1.9-.2-3.2-.5-3.8-.7-6.8 2-7.6 6.7-.8 4.9-1.3 16.2-1.5 35.8-.1 8-.4 15-.7 15.7-.5 1.3-4 1.1-5.4-.3-1.3-1.3-1.8-8.8-2.5-36.8-.7-32.2-.9-35.3-1.5-35.9-1.3-1.2-8-1.2-9.8 0-3.1 2.2-3.8 7.8-4.6 38.4-.8 29.5-1.3 33-4.5 33-1.1 0-2-1-2.3-2.8-.3-1.5-.6-33.5-.5-71.2 0-37.7-.2-69.6-.6-71-1.3-5.3-8.9-8.7-11.8-5.3zm18.6 175.4c-1 1.7-7.4.7-7.4-1.1 0-1.3 3.3-1.7 5.7-.7 1.2.6 2 1.4 1.7 1.8zm23.8.6c2.4 2.2 2.3 3.3-.5 3.3-3 0-6.2-2.4-5.3-3.8 1-1.7 3.6-1.5 5.8.5zm46.3 2.4c1.6 1.6-3 1-5.1-.7-1.8-1.5-1.8-1.5 1.1-.9 1.7.4 3.4 1.1 4 1.6zm-22.3 2.2c1.2 2-.6 2.8-4 1.6-4.4-1.5-4.4-4.4 0-3.5 1.8.3 3.5 1.2 4 1.9zm47.2-.7c.9.8 1.6 1.7 1.6 2 0 1.1-3 .2-5.1-1.6-2.4-1.9-2.4-1.9-.2-2 1.2 0 2.9.7 3.7 1.6zm-118.9 24.5c.2 12.5.7 43.3 1 68.5.8 67.8 1.8 106.3 2.9 111.9 1.2 5.6 2.5 7.5 5.5 7.5 5.1 0 6.1-3.2 6.7-20.9.4-12.9.4-83.9 0-148.9-.1-23.3.1-42.5.4-42.7.3-.2 2.1 0 4 .4l3.5.7.1 5.9c.1 3.3.5 24.9.9 48 1 65 1 64.7 5.3 68.8 4.3 4 6.4 3.9 7.9-.7 2-5.8 2.5-19.5 2.7-72.6l.2-48.5 3.3.2c1.9.1 3.6.4 3.8.7.3.3.7 11.2.9 24.3 1.3 100.6 1.7 108.5 5 111.8.9.8 2.8 1.5 4.4 1.5 2.3 0 3.4-.7 4.7-3.3 1.7-3 1.8-7.8 1.9-66.2l.1-63 3-.3c2.3-.2 3.2.2 3.5 1.6.3 1 .6 10.4.7 20.8.3 25.4.8 35 2.2 40.6 1.2 5.3 1.7 5.8 5.9 6.4 6 1 6.8-3.3 7.1-38.6.1-12.5.5-23.3.9-24 1.2-2 4.7-.2 5.6 2.8.9 3.6 1.2 9.9 1.4 32.7.3 29.5 2.4 39.5 8.4 39.5 5.5-.1 6.6-3.8 7.1-25.5 1-34.5 1.6-39.5 4.7-39.5.6 0 3 1.2 5.4 2.7l4.4 2.8V257c.1 22.3.5 42.5 1 45 .6 3.2 1.7 5.3 4.2 7.3 3.8 3.2 5.8 3.1 7.5-.3 2-4.3 2.5-11.6 2.8-47.5.2-19.3.4-35.3.4-35.8.1-.4 1.3 0 2.7 1 4.2 2.7 4.9 5.7 5.9 23.1 1.1 19.8 1.8 21.9 8 24.9 2.7 1.3 3.7 1.4 4.9.4 2-1.7 3.3-11.3 3.5-26.7l.1-6.2 17.3 17.3c9.4 9.5 20 20.2 23.5 23.8 3.4 3.6 6.2 6.3 6.2 6 0-.2-1.9-2.8-4.2-5.7-2.4-2.9-5.2-6.5-6.3-8-1.1-1.5-3.9-5.3-6.3-8.4-4.9-6.4-4-8.3 1.5-3.1 10 9.7 22.8 28.7 31.8 47.4 16.5 34.2 24.8 60.9 28 90 .4 3.3.9 7.1 1.1 8.5.2 1.4.5 9.7.5 18.5.1 14.5-.3 21.6-1.7 31.2-1.2 9-1.6 11.5-3.5 20.3-13.3 61.2-50.3 114.7-103.4 149.5-29.3 19.2-65.2 32.3-103.5 38-18 2.6-52.5 2.6-71-.1-32.2-4.6-64.3-16.1-92-32.9-5.2-3.2-9.7-6-10-6.4-.3-.3-2.7-2.1-5.5-4-29.6-20.4-60.1-56.3-77.9-91.8-6.5-13-16.1-38.1-18-47.3-.3-1.4-1-4.5-1.7-7-.6-2.5-1.3-5.6-1.5-7-.2-1.4-.9-4.8-1.5-7.6-3.1-15.6-4.2-43.1-2.6-61.9.6-6.8 2.4-18.2 4.1-27.3 4.4-21.8 18.1-54.4 31.6-74.7 14.2-21.4 43.7-53.2 46.6-50.2.5.4.9 2.3 2 8.2 1.2 6.7 5.8 7 9.8.7 3-4.8 4.3-9.1 5.6-18 .5-4 1.7-8.6 2.5-10.2 1.8-3.4 7.3-7.6 8.5-6.4 1.2 1.3 1.8 7.8 2.6 25.3.8 20.9 1.2 22.6 5 23.4 3.2.6 6.9-2.4 8.3-6.6 1.6-5.1 2.1-11.1 2.6-29.9.2-9.8.7-19.4 1.1-21.3.6-3.2 3.5-6.5 5.6-6.5 1.6 0 2.7 4.9 3.3 14.3 1.1 18.8 6.7 27.9 12.3 19.9 2.5-3.5 3-5.9 3.7-16.7 1.4-21.6 2.2-25.6 5.8-26.3 3.5-.7 4.3 5.3 5.1 40.4.5 18.5 1.6 22.4 6.4 22.4 7.4-.1 8.1-3.2 9.7-45.5.8-20.1 1.3-23.5 3.5-23.5 1.8 0 2.6 2 3.6 8.8.2 1.5.6 19.6.9 40.2.6 45.1.8 47.3 4.8 48.6 9.2 3.1 9.8.1 9.9-50.1.2-37.6.9-49 3.5-51.6 3.3-3.3 4.3 1.8 4.8 24.4.5 19.8 1.2 27.7 2.5 31.2 1.1 2.9 5.1 5.1 7.5 4.2 3.4-1.4 3.6-2.8 4.9-46.6.4-10.4.9-14.6 1.8-15.2 3.1-2 3.7 1.4 4.3 24.2zm93-17.9c2.4 1.9 2.5 2.2 1 3-2.8 1.6-6.5.1-6.5-2.7 0-3.1 1.8-3.2 5.5-.3zm27.3 1.5c3.4 2.1 2.1 2.7-2.1 1-4.2-1.8-6.2-4.3-2.6-3.2 1.3.4 3.5 1.4 4.7 2.2zm26.1 6.4c1.8 1.1 3.1 2.2 2.8 2.5-.6.7-6.3-2.2-7.2-3.6-1-1.6.7-1.2 4.4 1.1zm-27.2 1.9c3.1 1.8 5.3 6.3 3.9 7.8-1.2 1.1-8-3.1-9.3-5.7-2.1-4.4.2-5.3 5.4-2.1zm26.4 14.9c3 3 3.9 7.1 1.6 7.1-2 0-5.4-4.1-6.2-7.3-.9-3.6.8-3.5 4.6.2zm28.9 22.9c3 4.2 1.5 6.4-2.3 3.6-3.1-2.3-7.1-9-6.2-10.4.8-1.3 5.5 2.4 8.5 6.8zM230.9 638.9c7.8 4.9 21.3 12 32.4 17 7 3.2 19.5 7.7 35 12.8 7.7 2.4 13.7 4.6 13.5 4.8-1.4 1.5-25.3-5.8-41.3-12.5-23.9-10-56-27.8-57.3-31.8-.4-1.3 3.6.9 17.7 9.7zm12.1 15.2c19.4 9.5 42.8 19 52.5 21.3 5.5 1.3 13.7 4 14 4.7 1.7 2.6-26-5.8-41-12.5-1.6-.8-6.4-2.8-10.5-4.6-12.7-5.4-30.5-15-27.9-15 .2 0 6.1 2.7 12.9 6.1z"/><path d="M195 472v42h12l.1-12.8c.1-17.9.6-22.9 2.6-27.1 2.2-4.4 7.5-8.1 11.7-8.1 9.3.1 11.5 5.9 11.8 30.6l.3 17.2 6 .1 6.1.1-.2-9.2c-.7-34.4-.9-35.8-4.7-41.5-4-6-14.1-8.5-21.2-5.4-2.3 1-5.7 3.2-7.7 4.9-1.9 1.7-3.8 2.9-4.2 2.5-.3-.3-.6-8.4-.6-18V430h-12v42zm332.4-.3l.1 41.8 2.9.3c5.3.6 7.6-.5 7.6-3.8 0-3.7 1.3-4.5 3.6-1.9 5.5 6.1 15.5 8 23.9 4.5 9.5-4 14.4-12.4 14.9-25.4.4-13.7-2.9-22.9-9.9-27.2-4.3-2.6-6.8-3.2-12.8-3.1-6.3.1-11 2.2-15.2 6.8-2.2 2.4-3.5 3.3-3.6 2.3-.1-.8-.2-3.1-.4-5s-.3-9.7-.4-17.3L538 430h-10.6v41.7zm32.1-4.7c3.6 1.4 5.3 3.2 7.5 8.3 3.8 8.6.7 22.9-6.1 27.8-6.1 4.3-15 2.3-19.7-4.5-4.1-5.9-3.1-22.7 1.6-28 3.6-4.1 11.2-5.7 16.7-3.6zm-234.1-32.2c-2.1.3-2.1.5-2.1 39.6l-.1 39.3 5.9.2c4.1.1 5.9-.3 6-1.1.1-.7.2-8.5.4-17.3.1-8.8.3-17.1.4-18.4l.1-2.4 2.5 2.9c1.4 1.6 8.5 10.4 15.6 19.6l13.1 16.8h6.8c6 0 6.8-.2 6.4-1.8-.3-.9-7.2-10-15.4-20.2l-14.8-18.5 1.9-3.5c1.1-1.9 7.2-9.8 13.5-17.5 14.5-17.7 14.4-17.5 10.2-17.6-1.8-.1-4.8-.2-6.6-.3-2.9-.1-3.8.6-7.5 5.4-2.2 3-4.7 6.1-5.3 7-.7.8-5 6.2-9.5 12-8.2 10.5-9.9 12.3-10.8 11.4-.2-.2-.5-8.1-.6-17.4-.1-9.4-.5-17.3-.8-17.7-.8-.7-5.9-1-9.3-.5zm-162.6 8c-4 1.3-4.8 2-4.9 4.1-.4 11.3 0 10.5-4.4 10.7-2.2.1-4.3.2-4.7.3-.5 0-.8 2.1-.8 4.6v4.5h9.6l.2 16.8c.4 27.1 2.2 30.5 16.4 30.6 7.7.1 9-.8 8.6-5.9-.3-2.6-.7-3-3.8-3.3-5-.4-7.8-2.1-8.4-5.1-.6-2.6-.9-14.9-.7-26.9l.1-6.2h13v-9.6h-6.7l-6.6.1-.2-6.5c-.3-9.4-.4-10-1.2-9.9-.5 0-2.9.8-5.5 1.7zm114.1 15.3c-12.7 4.5-18.1 13.3-18.1 29.4 0 20.1 13.9 30.4 35.2 26 8.5-1.8 10-2.9 10-7.5 0-2.2-.2-4-.4-4s-2.1.7-4.2 1.6c-5.3 2.2-15.9 2.2-20.6 0-3.8-1.9-7.5-6.5-7.8-10.1-.6-5.2-1.4-5 19.1-4.9l19.2.1-.6-7c-1.6-18.9-15.6-29.3-31.8-23.6zm16.3 10.6c2 2 3.1 4.4 3.5 7.1.6 4.7 1.5 4.3-10.2 4.3-15.6 0-15.5.1-15.5-2.2 0-3.7 3.8-9 8.5-11.8 3.4-2 10.4-.7 13.7 2.6zm124.5-11.2c-4.1 1.4-5.5 2.4-10.4 6.9l-3.3 3-.1-3.5c-.2-6.6 0-6.4-5.7-6.5-2.9 0-5.6.4-5.9.9-.5.8-.8 45.7-.4 54 .1 1.6.9 1.8 5.9 1.5l5.7-.3.2-11c.4-29.7 2.1-34.7 12.6-36.1 5.9-.8 9.5.9 11.3 5.1 1.9 4.7 2.2 8 2.3 26.7l.1 15.7 6.3-.2 6.2-.2-.3-10.5c-.5-18.7-1.3-30.4-2.3-34.2-1-3.9-4.9-8.8-8.5-10.6-3.3-1.7-9.7-2.1-13.7-.7zm60-.3c-13.9 3-22 13.2-22 27.8-.1 13.2 4.6 22 14.2 26.8 4.8 2.3 6.8 2.7 13.6 2.6 9.3-.1 15.6-2.5 20.4-7.4 9.7-10.2 10.8-29.7 2.4-40.8-5.8-7.8-17.5-11.4-28.6-9zm16.3 12.3c3.9 3.7 5.8 10.3 5.4 17.9-.6 11.7-6 18-15.4 17.7-8.4-.1-12.6-3.3-15.2-11.1-3.2-9.8-.1-21.7 6.9-25.8 5.6-3.3 14.1-2.7 18.3 1.3zm34-282.7c0 2.8 15.9 11.6 17.7 9.8 1.5-1.4-3.4-6.1-9.3-8.7-7.4-3.4-8.4-3.5-8.4-1.1z"/></svg>