<svg xmlns="http://www.w3.org/2000/svg" width="512" height="512" viewBox="0 0 135.46666 135.46667"><g fill="#282828"><path d="M68.84 1.444c-.242.292-.399 5.149-.468 14.456-.078 10.644-.205 14.117-.528 14.44-1.02 1.02-1.151-.2-.854-7.92.33-8.564.248-9.156-1.274-9.156-1.548 0-1.702.833-1.702 9.188 0 7.691-.087 8.518-.888 8.518-.608 0-.575.74-.481-10.802l.08-9.95-.844-.384c-2.239-1.02-2.294-.766-2.294 10.516 0 8.615-.08 10.24-.53 10.884-.944 1.347-1.173.834-1.173-2.623 0-4.177-.567-5.14-2.307-3.921-.685.48-.757.816-.757 3.524 0 6.251-1.613 7.18-2.125 1.223-.267-3.097-2.983-.806-2.983 2.516 0 1.812-.149 2.53-.656 3.15-1.192 1.458-1.368.527-1.465-7.719l-.092-7.82-.794-.114c-1.893-.267-2.099.466-2.117 7.572-.022 7.95-.32 11.049-1.104 11.487-1.015.57-1.09.486-1.263-1.41-.374-4.12-3.45-2.172-3.628 2.298l-.106 2.639-2.2 1.978C21.422 57.387 15.02 80.711 21.222 98.904c7.243 21.247 29.935 36.57 51.985 35.1 1.78-.118 4.231-.282 5.448-.366l2.213-.152-2.213.482c-16.878 3.674-37.309-3.866-48.283-17.818-.786-1-1.43-1.716-1.43-1.591 0 .586 3.297 4.402 6.186 7.16 9.078 8.662 19.536 12.932 32.677 13.346 7.25.227 16.298-1.001 16.298-2.214 0-.132.36-.262.799-.287 1.301-.074 8.059-3.07 11.463-5.082 1.74-1.028 3.638-2.095 4.218-2.372 1.507-.718 5.904-4.823 8.474-7.91 17.61-21.166 17.024-51.772-1.354-70.719l-2.66-2.742V41.78c0-1.076.116-1.958.256-1.958.794 0 .04-.814-1.304-1.41-1.668-.738-2.224-.65-1.49.236.376.453.376.592 0 .825-.26.16-.373.585-.265.995.233.89-.337.912-1.367.054-.708-.59-.766-.919-.766-4.34 0-3.92-.326-4.952-1.68-5.306-1.078-.282-1.393.487-1.522 3.713-.124 3.11-.314 3.406-1.529 2.398-.39-.325-.438-1.467-.26-6.357.225-6.155.182-6.464-.976-7.072-1.56-.82-1.864-.082-1.864 4.533 0 2.6-.132 4.24-.341 4.24-.427 0-.447 1.115-.029 1.55.492.509-.409 1.109-1.217.81-1.027-.38-1.232-3.424-.941-13.95.262-9.466.106-10.543-1.525-10.543-1.284 0-1.373.656-1.604 11.772-.249 12.033-.162 11.186-1.116 10.883-.63-.2-.704-.541-.791-3.655-.16-5.615-2.395-6.022-2.58-.47-.095 2.84-.13 2.961-.851 2.858-.745-.105-.753-.167-.708-5.895.046-6.053-.01-6.284-1.48-6.294-1.229-.01-1.459 1.01-1.459 6.466 0 5.149 0 5.153-.766 5.044-.76-.107-.767-.162-.936-7.26l-.17-7.15-.979-.111c-1.639-.188-1.734.176-1.916 7.363-.163 6.425-.199 6.71-.852 6.71-.672 0-.678-.184-.547-14.144.123-13.01.088-14.19-.45-14.727-.692-.692-1.67-.757-2.177-.145m3.855 33.612c.12.193-.166.34-.66.34-.48 0-.871-.153-.871-.34 0-.187.297-.34.66-.34.364 0 .756.153.871.34m4.782.363c.123.2.143.444.045.542-.267.267-1.591-.222-1.591-.588 0-.438 1.27-.4 1.546.046m8.669.318c.454.293.454.33 0 .33-.282 0-.741-.148-1.022-.33-.454-.294-.454-.33 0-.33.28 0 .74.148 1.022.33m-4.625.206c.296.114.538.354.538.535 0 .473-1.452.19-1.619-.316-.153-.463.237-.542 1.081-.219m9.71.278c.33.397.275.45-.305.299-.851-.223-1.271-.783-.586-.783.269 0 .67.217.89.484m10.919.039c0 .41 2.545 1.86 3.263 1.86.792 0-.192-1.188-1.418-1.714-1.875-.804-1.845-.8-1.845-.146m-34.237.243c.072.234.23 9.233.348 19.998.23 20.678.238 20.777 1.753 20.777 1.252 0 1.306-.973 1.19-21.395l-.113-19.862.803.113.802.114.17 11.483c.169 11.345.18 11.491.937 12.248 1.919 1.917 2.113.818 2.138-12.094l.021-11.51.751.106.75.107.171 12.882c.18 13.58.213 13.847 1.743 13.847 1.299 0 1.37-.732 1.291-13.411l-.075-12.297.733-.108c.729-.109.734-.063.734 6.044 0 6.25.278 7.537 1.618 7.509 1.151-.023 1.277-.646 1.287-6.37.013-6.662-.031-6.35.84-5.882.642.343.682.712.682 6.321 0 6.463.367 8.32 1.644 8.32 1.237 0 1.394-.725 1.438-6.597.044-6.21.182-6.618 1.858-5.52l.849.556v8.505c0 8.05.036 8.54.68 9.185 2.01 2.01 2.384.699 2.384-8.362v-7.725l.766.507c.7.463.782.84.937 4.33.155 3.5.237 3.877.974 4.471 1.687 1.364 2.03.821 2.175-3.436l.085-2.554 1.436 1.532c.79.843 1.586 1.656 1.768 1.808 1.034.858 4.792 4.667 5.608 5.683l.957 1.192-.941-1.362c-.518-.749-1.624-2.174-2.457-3.166-.833-.992-1.42-1.898-1.305-2.012.328-.329 1.486.87 3.667 3.798 1.81 2.427 2.475 3.628 4.749 8.56 14.45 31.345-7.01 65.644-41.783 66.78C29.576 131 6.107 79.626 35.791 50.41c2.843-2.798 2.95-2.838 3.09-1.139.263 3.183 2.661 1.3 3.053-2.398.223-2.106.393-2.56 1.197-3.204 1.276-1.023 1.281-1.006 1.474 4.268.162 4.43.205 4.66.897 4.758 1.639.234 2.167-1.271 2.172-6.193.006-4.915.147-5.852.929-6.153.824-.316.932.011 1.058 3.233.204 5.211 3.117 5.069 3.117-.152 0-3.202.363-4.97 1.023-4.97.795 0 1.011 1.484 1.016 6.998.003 4.55.19 5.261 1.392 5.261 1.289 0 1.5-.917 1.676-7.287.142-5.157.252-6.163.677-6.163.8 0 .942 1.472.985 10.289.04 8.033.059 8.255.763 8.631 1.895 1.015 2.177-.2 2.056-8.842-.114-8.25.08-10.93.798-10.93.687 0 .774.585.83 5.606.054 4.71.249 5.726 1.17 6.079 1.318.506 1.557-.397 1.597-6.063.021-2.996.11-5.561.198-5.704.249-.402.808-.303.954.168m18.5 1.224c.072.216-.188.393-.579.393-.39 0-.709-.064-.709-.142 0-.078-.094-.386-.208-.684-.17-.443-.065-.488.579-.251.432.16.845.468.916.684m4.842-.118c.546.313.66.491.32.5-.292.006-.828-.214-1.191-.489-.847-.64-.243-.647.87-.011m5.299 1.352c.363.274.498.504.3.51-.198.005-.658-.214-1.02-.488-.365-.276-.5-.506-.302-.512.199-.004.659.215 1.022.49m-5.484.235c.705.322 1.279 1.648.712 1.648-.674 0-1.888-.91-1.888-1.416 0-.738.045-.747 1.176-.232m4.975 2.765c.757.592 1.086 1.607.52 1.607-.51 0-1.007-.542-1.33-1.447-.246-.691.053-.749.81-.16m6.107 5.246c0 .637-.351.555-1.255-.293-.433-.407-.788-1.05-.788-1.426 0-.622.095-.594 1.021.293.562.539 1.022 1.18 1.022 1.426m-55.502 77.65c2.902 1.628 8.078 3.736 11.43 4.656 1.673.459 2.713.845 2.314.858-3.513.12-17.903-6.466-19.393-8.876-.13-.21.667.223 1.77.964a68.93 68.93 0 0 0 3.879 2.398m5.958 4.286c1.686.666 4.133 1.478 5.438 1.803 1.306.326 2.184.656 1.952.733-1.383.46-13.21-4.267-15.562-6.22-.374-.311.622.118 2.214.954 1.591.835 4.273 2.064 5.958 2.73" fill-rule="evenodd"/><path d="M37.735 91.317v-8.126h2.321v3.599c0 1.979.06 3.598.131 3.598.073 0 .407-.327.744-.728 1.662-1.974 4.832-1.761 5.96.401.415.795.485 1.435.56 5.145l.086 4.237h-2.373v-3.308c-.003-4.792-.46-5.979-2.303-5.979-1.163 0-2.16.806-2.531 2.045-.152.505-.273 2.322-.273 4.077v3.165h-2.322zm-5.523 8.096c-1.428-.412-1.673-1.196-1.674-5.368v-3.657H28.68v-1.857h1.857v-2.54l1.103-.322 1.103-.323.068 1.593.068 1.592h2.534v1.857h-2.554v3.33c0 3.011.044 3.371.454 3.742.312.283.71.381 1.277.315.81-.095.823-.083.823.757 0 .77-.07.867-.726.998-.927.186-1.524.158-2.475-.117zm21.256.046c-2.265-.735-3.428-2.522-3.428-5.27 0-2.67.89-4.321 2.858-5.302 3.481-1.735 6.886.584 6.892 4.694l.001.987h-7.429v.602c0 .819.618 1.805 1.434 2.287.858.507 3.154.521 4.114.025.939-.486.952-.48.952.464 0 .728-.098.865-.843 1.177-1.018.425-3.672.621-4.551.336zm4.001-7.109c0-1.522-1.343-2.618-2.86-2.333-1.054.198-2.247 1.559-2.247 2.562 0 .308.39.363 2.553.363h2.554zm5.108-.569V84.12h2.321v3.598c0 1.98.084 3.6.186 3.6.101 0 1.424-1.62 2.938-3.6l2.753-3.598h1.393c1.303 0 1.371.026 1.05.406-2.547 3.009-5.552 6.845-5.493 7.011.042.117 1.33 1.752 2.862 3.633 3.89 4.778 3.665 4.273 1.905 4.273h-1.488l-2.906-3.823c-1.598-2.102-2.972-3.756-3.052-3.676-.081.081-.147 1.801-.147 3.823v3.676h-2.322zm13.234 2.206v-5.456h2.322v1.917l1.024-.944c1.52-1.402 3.473-1.587 4.9-.464 1.145.9 1.35 1.785 1.458 6.282l.1 4.121H83.24l-.001-3.424c-.002-3.755-.22-4.97-.988-5.508-.64-.448-1.857-.455-2.708-.015-1.112.575-1.41 1.756-1.41 5.585v3.362h-2.322zm16.075 5.461c-2.293-.544-3.77-2.658-3.77-5.398 0-.907.154-1.957.36-2.45 1.311-3.149 5.656-4.318 8.62-2.32 2.009 1.353 2.678 5.132 1.344 7.583-.76 1.396-1.546 2.035-3.064 2.492a6.554 6.554 0 0 1-3.49.093zm3.517-2.115c.953-.75 1.304-1.65 1.304-3.346 0-2.486-1.034-3.83-2.945-3.83-1.433 0-2.347.54-2.873 1.698-.906 1.996-.408 4.642 1.04 5.525.99.604 2.676.58 3.474-.047zm11.112 2.191c-.287-.062-.903-.472-1.367-.91-.465-.438-.882-.796-.928-.796-.046 0-.084.366-.084.813 0 .808-.005.812-1.045.812h-1.044V83.191h2.089v3.599c0 1.979.093 3.598.206 3.598.113 0 .382-.27.598-.6 1.107-1.689 4.316-1.954 5.894-.487 1.135 1.057 1.53 2.203 1.529 4.454 0 1.823-.082 2.245-.635 3.307-.792 1.522-1.99 2.361-3.55 2.485-.627.05-1.375.04-1.663-.023zm2.122-2.19c1.801-1.418 1.993-5.2.334-6.596-1.273-1.071-3.512-.625-4.276.853-.507.98-.684 3.171-.34 4.212.608 1.844 2.86 2.648 4.282 1.53z"/></g></svg>