<svg xmlns="http://www.w3.org/2000/svg" viewBox="0 0 135.46667 135.46667" height="512" width="512"><path d="M7.81 135.224c-3.428-.749-5.924-2.969-7.25-6.453-.544-1.427-.56-3.174-.56-60.974S.016 8.249.56 6.822C1.914 3.265 4.37 1.117 7.95.36c3.072-.65 116.494-.65 119.567 0 3.58.758 6.035 2.906 7.39 6.463.544 1.427.56 3.175.56 60.975 0 57.8-.016 59.547-.56 60.974-1.19 3.124-3.313 5.239-6.31 6.285-1.23.43-6.896.48-60.129.527-49.448.044-59.07-.013-60.658-.36zm68.959-20.676c19.259-3.733 34.136-18.758 37.855-38.23.747-3.914.747-12.835 0-16.75-3.751-19.64-18.756-34.644-38.369-38.364-3.909-.742-12.84-.742-16.75 0-19.611 3.72-34.644 18.753-38.365 38.365-.741 3.909-.741 12.84 0 16.75 3.617 19.067 18.151 34.057 36.905 38.062 5.331 1.14 13.34 1.21 18.724.167zm-13.265-6.785C45.823 105.53 32.321 93.102 28.605 75.64c-.901-4.235-.901-11.155 0-15.39 1.807-8.493 5.698-15.543 11.766-21.317 5.504-5.237 11.994-8.6 19.814-10.263 4.235-.902 11.155-.902 15.39 0 16.3 3.468 28.112 15.28 31.58 31.58.902 4.235.902 11.155 0 15.39-3.462 16.27-15.447 28.265-31.51 31.539-3.341.68-9.163.962-12.14.585zm10.408-9.571c.175-.463.286-8.25.286-20.125v-19.37l8.448-.079 8.449-.078.08-5.855c.06-4.489-.008-5.912-.294-6.093-.489-.31-45.513-.31-46.001 0-.287.181-.355 1.604-.294 6.093l.08 5.855 8.448.078 8.448.078v19.371c0 11.875.111 19.662.287 20.125l.287.753h11.489z" fill="#238af9"/></svg>